Nobile-Heavy.ufo
<glyph name="numbersign" format="1">
  <advance width="1339"/>
  <unicode hex="0023"/>
  <outline>
    <contour>
      <point x="159" y="0" type="line"/>
      <point x="387" y="0" type="line"/>
      <point x="680" y="1491" type="line"/>
      <point x="435" y="1491" type="line"/>
    </contour>
    <contour>
      <point x="91" y="470" type="line"/>
      <point x="1261" y="470" type="line"/>
      <point x="1261" y="624" type="line"/>
      <point x="91" y="624" type="line"/>
    </contour>
    <contour>
      <point x="119" y="848" type="line"/>
      <point x="1289" y="848" type="line"/>
      <point x="1289" y="1002" type="line"/>
      <point x="119" y="1002" type="line"/>
    </contour>
    <contour>
      <point x="697" y="0" type="line"/>
      <point x="926" y="0" type="line"/>
      <point x="1219" y="1491" type="line"/>
      <point x="973" y="1491" type="line"/>
    </contour>
  </outline>
</glyph>
<glyph name="dollar" format="1">
  <advance width="1101"/>
  <unicode hex="0024"/>
  <outline>
    <contour>
      <point x="344" y="-195" type="line"/>
      <point x="448" y="-195" type="line"/>
      <point x="748" y="1620" type="line"/>
      <point x="644" y="1620" type="line"/>
    </contour>
    <component base="s" xOffset="-28" yOffset="70"/>
  </outline>
</glyph>
<glyph name="percent" format="1">
  <advance width="2379"/>
  <unicode hex="0025"/>
  <outline>
    <contour>
      <point x="516" y="951" type="curve" smooth="yes"/>
      <point x="426" y="951"/>
      <point x="369" y="1029"/>
      <point x="369" y="1152" type="curve" smooth="yes"/>
      <point x="369" y="1279"/>
      <point x="426" y="1358"/>
      <point x="516" y="1358" type="curve" smooth="yes"/>
      <point x="606" y="1358"/>
      <point x="662" y="1279"/>
      <point x="662" y="1152" type="curve" smooth="yes"/>
      <point x="662" y="1029"/>
      <point x="606" y="951"/>
    </contour>
    <contour>
      <point x="516" y="708" type="curve" smooth="yes"/>
      <point x="770" y="708"/>
      <point x="930" y="879"/>
      <point x="930" y="1152" type="curve" smooth="yes"/>
      <point x="930" y="1425"/>
      <point x="770" y="1596"/>
      <point x="516" y="1596" type="curve" smooth="yes"/>
      <point x="261" y="1596"/>
      <point x="101" y="1425"/>
      <point x="101" y="1152" type="curve" smooth="yes"/>
      <point x="101" y="879"/>
      <point x="261" y="708"/>
    </contour>
    <contour>
      <point x="888" y="-161" type="line"/>
      <point x="1752" y="1635" type="line"/>
      <point x="1498" y="1743" type="line"/>
      <point x="638" y="-55" type="line"/>
    </contour>
    <contour>
      <point x="1878" y="225" type="curve" smooth="yes"/>
      <point x="1788" y="225"/>
      <point x="1731" y="303"/>
      <point x="1731" y="426" type="curve" smooth="yes"/>
      <point x="1731" y="553"/>
      <point x="1788" y="632"/>
      <point x="1878" y="632" type="curve" smooth="yes"/>
      <point x="1968" y="632"/>
      <point x="2024" y="553"/>
      <point x="2024" y="426" type="curve" smooth="yes"/>
      <point x="2024" y="303"/>
      <point x="1968" y="225"/>
    </contour>
    <contour>
      <point x="1878" y="-18" type="curve" smooth="yes"/>
      <point x="2132" y="-18"/>
      <point x="2292" y="153"/>
      <point x="2292" y="426" type="curve" smooth="yes"/>
      <point x="2292" y="699"/>
      <point x="2132" y="870"/>
      <point x="1878" y="870" type="curve" smooth="yes"/>
      <point x="1623" y="870"/>
      <point x="1463" y="699"/>
      <point x="1463" y="426" type="curve" smooth="yes"/>
      <point x="1463" y="153"/>
      <point x="1623" y="-18"/>
    </contour>
  </outline>
</glyph>
<glyph name="parenleft" format="1">
  <advance width="968"/>
  <unicode hex="0028"/>
  <outline>
    <contour>
      <point x="688" y="-324" type="curve"/>
      <point x="870" y="-132" type="line"/>
      <point x="682" y="62"/>
      <point x="591" y="370"/>
      <point x="591" y="682" type="curve" smooth="yes"/>
      <point x="591" y="1006"/>
      <point x="690" y="1333"/>
      <point x="882" y="1539" type="curve"/>
      <point x="694" y="1730" type="line"/>
      <point x="358" y="1493"/>
      <point x="190" y="1097"/>
      <point x="190" y="701" type="curve" smooth="yes"/>
      <point x="190" y="307"/>
      <point x="356" y="-87"/>
    </contour>
  </outline>
</glyph>
<glyph name="parenright" format="1">
  <advance width="966"/>
  <unicode hex="0029"/>
  <outline>
    <contour>
      <point x="333" y="-324" type="line"/>
      <point x="665" y="-87"/>
      <point x="831" y="307"/>
      <point x="831" y="701" type="curve" smooth="yes"/>
      <point x="831" y="1097"/>
      <point x="663" y="1493"/>
      <point x="327" y="1730" type="curve"/>
      <point x="139" y="1539" type="line"/>
      <point x="331" y="1333"/>
      <point x="430" y="1006"/>
      <point x="430" y="682" type="curve" smooth="yes"/>
      <point x="430" y="370"/>
      <point x="339" y="62"/>
      <point x="151" y="-132" type="curve"/>
    </contour>
  </outline>
</glyph>
<glyph name="plus" format="1">
  <advance width="1027"/>
  <unicode hex="002B"/>
  <outline>
    <contour>
      <point x="351" y="63" type="line"/>
      <point x="677" y="63" type="line"/>
      <point x="677" y="401" type="line"/>
      <point x="1011" y="401" type="line"/>
      <point x="1011" y="687" type="line"/>
      <point x="677" y="687" type="line"/>
      <point x="677" y="1021" type="line"/>
      <point x="351" y="1021" type="line"/>
      <point x="351" y="687" type="line"/>
      <point x="16" y="687" type="line"/>
      <point x="16" y="401" type="line"/>
      <point x="351" y="401" type="line"/>
    </contour>
  </outline>
</glyph>
<glyph name="comma" format="1">
  <advance width="799"/>
  <unicode hex="002C"/>
  <outline>
    <contour>
      <point x="275" y="-328" type="line"/>
      <point x="452" y="-275"/>
      <point x="649" y="-217"/>
      <point x="649" y="56" type="curve" smooth="yes"/>
      <point x="649" y="462" type="line"/>
      <point x="208" y="462" type="line"/>
      <point x="208" y="0" type="line"/>
      <point x="374" y="0" type="line"/>
      <point x="374" y="-105"/>
      <point x="352" y="-154"/>
      <point x="209" y="-206" type="curve"/>
    </contour>
  </outline>
</glyph>
<glyph name="slash" format="1">
  <advance width="933"/>
  <unicode hex="002F"/>
  <outline>
    <contour>
      <point x="90" y="-149" type="line"/>
      <point x="1022" y="1537" type="line"/>
      <point x="826" y="1633" type="line"/>
      <point x="-99" y="-56" type="line"/>
    </contour>
  </outline>
</glyph>
<glyph name="two" format="1">
  <advance width="1139"/>
  <unicode hex="0032"/>
  <outline>
    <contour>
      <point x="157" y="0" type="line"/>
      <point x="991" y="0" type="line"/>
      <point x="991" y="290" type="line"/>
      <point x="681" y="290" type="line"/>
      <point x="776" y="376" type="line" smooth="yes"/>
      <point x="974" y="556"/>
      <point x="1004" y="636"/>
      <point x="1004" y="779" type="curve" smooth="yes"/>
      <point x="1004" y="1020"/>
      <point x="802" y="1115"/>
      <point x="579" y="1115" type="curve" smooth="yes"/>
      <point x="409" y="1115"/>
      <point x="234" y="1064"/>
      <point x="99" y="984" type="curve"/>
      <point x="195" y="725" type="line"/>
      <point x="292" y="780"/>
      <point x="406" y="821"/>
      <point x="500" y="821" type="curve" smooth="yes"/>
      <point x="578" y="821"/>
      <point x="636" y="792"/>
      <point x="636" y="715" type="curve" smooth="yes"/>
      <point x="636" y="630"/>
      <point x="476" y="512"/>
      <point x="422" y="464" type="curve" smooth="yes"/>
      <point x="157" y="225" type="line"/>
    </contour>
  </outline>
</glyph>
<glyph name="three" format="1">
  <advance width="1253"/>
  <unicode hex="0033"/>
  <outline>
    <contour>
      <point x="610" y="-206" type="curve" smooth="yes"/>
      <point x="870" y="-206"/>
      <point x="1090" y="-92"/>
      <point x="1090" y="210" type="curve" smooth="yes"/>
      <point x="1090" y="273"/>
      <point x="1060" y="484"/>
      <point x="833" y="522" type="curve"/>
      <point x="961" y="552"/>
      <point x="1038" y="686"/>
      <point x="1042" y="803" type="curve" smooth="yes"/>
      <point x="1051" y="1069"/>
      <point x="849" y="1180"/>
      <point x="603" y="1180" type="curve" smooth="yes"/>
      <point x="452" y="1179"/>
      <point x="281" y="1136"/>
      <point x="139" y="1063" type="curve"/>
      <point x="269" y="797" type="line"/>
      <point x="365" y="850"/>
      <point x="457" y="875"/>
      <point x="529" y="875" type="curve" smooth="yes"/>
      <point x="640" y="875"/>
      <point x="677" y="821"/>
      <point x="677" y="763" type="curve" smooth="yes"/>
      <point x="677" y="673"/>
      <point x="589" y="630"/>
      <point x="416" y="630" type="curve"/>
      <point x="416" y="380" type="line"/>
      <point x="606" y="387"/>
      <point x="697" y="327"/>
      <point x="697" y="231" type="curve" smooth="yes"/>
      <point x="697" y="135"/>
      <point x="624" y="94"/>
      <point x="525" y="94" type="curve" smooth="yes"/>
      <point x="449" y="94"/>
      <point x="358" y="118"/>
      <point x="273" y="162" type="curve"/>
      <point x="177" y="-116" type="line"/>
      <point x="313" y="-172"/>
      <point x="468" y="-206"/>
    </contour>
  </outline>
</glyph>
<glyph name="four" format="1">
  <advance width="1292"/>
  <unicode hex="0034"/>
  <outline>
    <contour>
      <point x="668" y="-200" type="line"/>
      <point x="1001" y="-200" type="line"/>
      <point x="1001" y="56" type="line"/>
      <point x="1179" y="56" type="line"/>
      <point x="1179" y="329" type="line"/>
      <point x="1001" y="329" type="line"/>
      <point x="1001" y="1144" type="line"/>
      <point x="714" y="1220" type="line"/>
      <point x="79" y="281" type="line"/>
      <point x="125" y="56" type="line"/>
      <point x="668" y="56" type="line"/>
    </contour>
    <contour>
      <point x="439" y="329" type="line"/>
      <point x="668" y="727" type="line"/>
      <point x="668" y="329" type="line"/>
    </contour>
  </outline>
</glyph>
<glyph name="five" format="1">
  <advance width="1176"/>
  <unicode hex="0035"/>
  <outline>
    <contour>
      <point x="558" y="-173" type="curve" smooth="yes"/>
      <point x="835" y="-173"/>
      <point x="1035" y="12"/>
      <point x="1035" y="265" type="curve" smooth="yes"/>
      <point x="1035" y="458"/>
      <point x="938" y="694"/>
      <point x="677" y="694" type="curve" smooth="yes"/>
      <point x="622" y="694"/>
      <point x="560" y="683"/>
      <point x="490" y="660" type="curve"/>
      <point x="490" y="831" type="line"/>
      <point x="957" y="831" type="line"/>
      <point x="957" y="1096" type="line"/>
      <point x="176" y="1096" type="line"/>
      <point x="176" y="515" type="line"/>
      <point x="334" y="377" type="line"/>
      <point x="432" y="433"/>
      <point x="500" y="449"/>
      <point x="552" y="449" type="curve" smooth="yes"/>
      <point x="650" y="449"/>
      <point x="706" y="380"/>
      <point x="706" y="269" type="curve" smooth="yes"/>
      <point x="706" y="175"/>
      <point x="641" y="125"/>
      <point x="528" y="125" type="curve" smooth="yes"/>
      <point x="379" y="125"/>
      <point x="279" y="165"/>
      <point x="184" y="191" type="curve"/>
      <point x="147" y="-85" type="line"/>
      <point x="259" y="-135"/>
      <point x="434" y="-173"/>
    </contour>
  </outline>
</glyph>
<glyph name="six" format="1">
  <advance width="1208"/>
  <unicode hex="0036"/>
  <outline>
    <contour>
      <point x="656" y="-74" type="curve" smooth="yes"/>
      <point x="959" y="-74"/>
      <point x="1129" y="118"/>
      <point x="1129" y="384" type="curve" smooth="yes"/>
      <point x="1129" y="626"/>
      <point x="988" y="836"/>
      <point x="702" y="836" type="curve" smooth="yes"/>
      <point x="627" y="836"/>
      <point x="537" y="813"/>
      <point x="501" y="792" type="curve"/>
      <point x="578" y="935"/>
      <point x="802" y="1058"/>
      <point x="970" y="1080" type="curve"/>
      <point x="881" y="1373" type="line"/>
      <point x="513" y="1279"/>
      <point x="117" y="1031"/>
      <point x="117" y="484" type="curve" smooth="yes"/>
      <point x="117" y="170"/>
      <point x="310" y="-74"/>
    </contour>
    <contour>
      <point x="644" y="200" type="curve" smooth="yes"/>
      <point x="493" y="200"/>
      <point x="445" y="298"/>
      <point x="445" y="416" type="curve" smooth="yes"/>
      <point x="445" y="450"/>
      <point x="451" y="485"/>
      <point x="460" y="517" type="curve"/>
      <point x="514" y="554"/>
      <point x="589" y="573"/>
      <point x="649" y="573" type="curve" smooth="yes"/>
      <point x="760" y="573"/>
      <point x="813" y="492"/>
      <point x="813" y="389" type="curve" smooth="yes"/>
      <point x="813" y="276"/>
      <point x="751" y="200"/>
    </contour>
  </outline>
</glyph>
<glyph name="seven" format="1">
  <advance width="1068"/>
  <unicode hex="0037"/>
  <outline>
    <contour>
      <point x="498" y="-247" type="line"/>
      <point x="1059" y="904" type="line"/>
      <point x="973" y="1096" type="line"/>
      <point x="128" y="1096" type="line"/>
      <point x="128" y="814" type="line"/>
      <point x="618" y="814" type="line"/>
      <point x="170" y="-102" type="line"/>
    </contour>
  </outline>
</glyph>
<glyph name="eight" format="1">
  <advance width="1277"/>
  <unicode hex="0038"/>
  <outline>
    <contour>
      <point x="637" y="-141" type="curve" smooth="yes"/>
      <point x="894" y="-141"/>
      <point x="1140" y="-29"/>
      <point x="1140" y="248" type="curve" smooth="yes"/>
      <point x="1140" y="417"/>
      <point x="982" y="535"/>
      <point x="855" y="541" type="curve"/>
      <point x="998" y="562"/>
      <point x="1105" y="694"/>
      <point x="1105" y="845" type="curve" smooth="yes"/>
      <point x="1105" y="1079"/>
      <point x="911" y="1218"/>
      <point x="637" y="1218" type="curve" smooth="yes"/>
      <point x="366" y="1218"/>
      <point x="174" y="1081"/>
      <point x="174" y="845" type="curve" smooth="yes"/>
      <point x="174" y="692"/>
      <point x="282" y="562"/>
      <point x="422" y="541" type="curve"/>
      <point x="299" y="533"/>
      <point x="138" y="418"/>
      <point x="138" y="249" type="curve" smooth="yes"/>
      <point x="138" y="-30"/>
      <point x="380" y="-141"/>
    </contour>
    <contour>
      <point x="637" y="155" type="curve" smooth="yes"/>
      <point x="539" y="155"/>
      <point x="495" y="188"/>
      <point x="495" y="267" type="curve" smooth="yes"/>
      <point x="495" y="372"/>
      <point x="540" y="430"/>
      <point x="637" y="430" type="curve" smooth="yes"/>
      <point x="735" y="430"/>
      <point x="782" y="376"/>
      <point x="782" y="268" type="curve" smooth="yes"/>
      <point x="782" y="188"/>
      <point x="738" y="155"/>
    </contour>
    <contour>
      <point x="637" y="707" type="curve" smooth="yes"/>
      <point x="542" y="707"/>
      <point x="519" y="733"/>
      <point x="519" y="827" type="curve" smooth="yes"/>
      <point x="519" y="890"/>
      <point x="542" y="935"/>
      <point x="637" y="935" type="curve" smooth="yes"/>
      <point x="731" y="935"/>
      <point x="759" y="892"/>
      <point x="759" y="828" type="curve" smooth="yes"/>
      <point x="759" y="733"/>
      <point x="734" y="707"/>
    </contour>
  </outline>
</glyph>
<glyph name="nine" format="1">
  <advance width="1277"/>
  <unicode hex="0039"/>
  <outline>
    <contour>
      <point x="382" y="-363" type="line"/>
      <point x="840" y="-241"/>
      <point x="1190" y="43"/>
      <point x="1190" y="593" type="curve" smooth="yes"/>
      <point x="1190" y="836"/>
      <point x="1095" y="1180"/>
      <point x="630" y="1180" type="curve" smooth="yes"/>
      <point x="309" y="1180"/>
      <point x="119" y="977"/>
      <point x="119" y="696" type="curve" smooth="yes"/>
      <point x="119" y="440"/>
      <point x="269" y="205"/>
      <point x="572" y="205" type="curve" smooth="yes"/>
      <point x="672" y="205"/>
      <point x="754" y="231"/>
      <point x="784" y="255" type="curve"/>
      <point x="705" y="109"/>
      <point x="505" y="-12"/>
      <point x="283" y="-56" type="curve"/>
    </contour>
    <contour>
      <point x="624" y="487" type="curve" smooth="yes"/>
      <point x="503" y="487"/>
      <point x="446" y="587"/>
      <point x="446" y="687" type="curve" smooth="yes"/>
      <point x="446" y="790"/>
      <point x="507" y="889"/>
      <point x="633" y="893" type="curve" smooth="yes"/>
      <point x="801" y="898"/>
      <point x="847" y="776"/>
      <point x="847" y="658" type="curve" smooth="yes"/>
      <point x="847" y="621"/>
      <point x="841" y="583"/>
      <point x="830" y="547" type="curve"/>
      <point x="772" y="508"/>
      <point x="690" y="487"/>
    </contour>
  </outline>
</glyph>
<glyph name="equal" format="1">
  <advance width="1252"/>
  <unicode hex="003D"/>
  <outline>
    <contour>
      <point x="56" y="250" type="line"/>
      <point x="1146" y="250" type="line"/>
      <point x="1146" y="507" type="line"/>
      <point x="56" y="507" type="line"/>
    </contour>
    <contour>
      <point x="56" y="659" type="line"/>
      <point x="1146" y="659" type="line"/>
      <point x="1146" y="916" type="line"/>
      <point x="56" y="916" type="line"/>
    </contour>
  </outline>
</glyph>
<glyph name="greater" format="1">
  <advance width="1541"/>
  <unicode hex="003E"/>
  <outline>
    <contour>
      <point x="357" y="73" type="line"/>
      <point x="1469" y="753" type="line"/>
      <point x="357" y="1433" type="line"/>
      <point x="192" y="1166" type="line"/>
      <point x="855" y="753" type="line"/>
      <point x="192" y="340" type="line"/>
    </contour>
  </outline>
</glyph>
<glyph name="question" format="1">
  <advance width="1124"/>
  <unicode hex="003F"/>
  <outline>
    <contour>
      <point x="227" y="500" type="line"/>
      <point x="572" y="500" type="line"/>
      <point x="572" y="664" type="line"/>
      <point x="936" y="743"/>
      <point x="1059" y="863"/>
      <point x="1059" y="1120" type="curve" smooth="yes"/>
      <point x="1059" y="1433"/>
      <point x="793" y="1562"/>
      <point x="491" y="1562" type="curve" smooth="yes"/>
      <point x="328" y="1562"/>
      <point x="155" y="1525"/>
      <point x="7" y="1458" type="curve"/>
      <point x="97" y="1163" type="line"/>
      <point x="171" y="1197"/>
      <point x="320" y="1234"/>
      <point x="447" y="1234" type="curve" smooth="yes"/>
      <point x="565" y="1234"/>
      <point x="664" y="1202"/>
      <point x="664" y="1107" type="curve" smooth="yes"/>
      <point x="664" y="957"/>
      <point x="449" y="895"/>
      <point x="227" y="849" type="curve"/>
    </contour>
    <contour>
      <point x="411" y="-80" type="curve" smooth="yes"/>
      <point x="547" y="-80"/>
      <point x="633" y="1"/>
      <point x="633" y="129" type="curve" smooth="yes"/>
      <point x="633" y="257"/>
      <point x="547" y="337"/>
      <point x="409" y="337" type="curve" smooth="yes"/>
      <point x="274" y="337"/>
      <point x="189" y="256"/>
      <point x="189" y="126" type="curve" smooth="yes"/>
      <point x="189" y="-1"/>
      <point x="275" y="-80"/>
    </contour>
  </outline>
</glyph>
<glyph name="at" format="1">
  <advance width="1992"/>
  <unicode hex="0040"/>
  <outline>
    <contour>
      <point x="995" y="-157" type="curve" smooth="yes"/>
      <point x="1176" y="-157"/>
      <point x="1384" y="-119"/>
      <point x="1514" y="-62" type="curve"/>
      <point x="1453" y="118" type="line"/>
      <point x="1335" y="57"/>
      <point x="1156" y="20"/>
      <point x="995" y="20" type="curve" smooth="yes"/>
      <point x="564" y="20"/>
      <point x="331" y="264"/>
      <point x="312" y="679" type="curve" smooth="yes"/>
      <point x="290" y="1149"/>
      <point x="612" y="1450"/>
      <point x="1068" y="1450" type="curve" smooth="yes"/>
      <point x="1475" y="1450"/>
      <point x="1727" y="1221"/>
      <point x="1727" y="850" type="curve" smooth="yes"/>
      <point x="1727" y="568"/>
      <point x="1639" y="402"/>
      <point x="1520" y="402" type="curve" smooth="yes"/>
      <point x="1500" y="402"/>
      <point x="1486" y="420"/>
      <point x="1490" y="461" type="curve" smooth="yes"/>
      <point x="1543" y="1069" type="line" smooth="yes"/>
      <point x="1554" y="1196"/>
      <point x="1396" y="1271"/>
      <point x="1160" y="1271" type="curve" smooth="yes"/>
      <point x="747" y="1271"/>
      <point x="454" y="1011"/>
      <point x="486" y="606" type="curve" smooth="yes"/>
      <point x="504" y="377"/>
      <point x="634" y="226"/>
      <point x="868" y="226" type="curve" smooth="yes"/>
      <point x="1104" y="226"/>
      <point x="1296" y="395"/>
      <point x="1372" y="658" type="curve"/>
      <point x="1323" y="664" type="line"/>
      <point x="1320" y="605"/>
      <point x="1308" y="505"/>
      <point x="1308" y="433" type="curve" smooth="yes"/>
      <point x="1308" y="319"/>
      <point x="1383" y="241"/>
      <point x="1500" y="241" type="curve" smooth="yes"/>
      <point x="1766" y="241"/>
      <point x="1929" y="482"/>
      <point x="1929" y="850" type="curve" smooth="yes"/>
      <point x="1929" y="1324"/>
      <point x="1595" y="1626"/>
      <point x="1068" y="1626" type="curve" smooth="yes"/>
      <point x="471" y="1626"/>
      <point x="62" y="1241"/>
      <point x="94" y="656" type="curve" smooth="yes"/>
      <point x="122" y="153"/>
      <point x="444" y="-157"/>
    </contour>
    <contour>
      <point x="895" y="397" type="curve" smooth="yes"/>
      <point x="772" y="396"/>
      <point x="712" y="479"/>
      <point x="697" y="622" type="curve" smooth="yes"/>
      <point x="665" y="928"/>
      <point x="874" y="1114"/>
      <point x="1159" y="1116" type="curve" smooth="yes"/>
      <point x="1211" y="1116"/>
      <point x="1282" y="1104"/>
      <point x="1351" y="1082" type="curve"/>
      <point x="1302" y="657"/>
      <point x="1121" y="398"/>
    </contour>
  </outline>
</glyph>
<glyph name="A" format="1">
  <advance width="1458"/>
  <unicode hex="0041"/>
  <outline>
    <contour>
      <point x="735" y="1485" type="move" name="top"/>
    </contour>
    <contour>
      <point x="25" y="0" type="line"/>
      <point x="427" y="0" type="line"/>
      <point x="528" y="318" type="line"/>
      <point x="930" y="318" type="line"/>
      <point x="1031" y="0" type="line"/>
      <point x="1434" y="0" type="line"/>
      <point x="941" y="1485" type="line"/>
      <point x="518" y="1485" type="line"/>
    </contour>
    <contour>
      <point x="577" y="513" type="line"/>
      <point x="737" y="1029" type="line"/>
      <point x="881" y="513" type="line"/>
    </contour>
  </outline>
</glyph>
<glyph name="B" format="1">
  <advance width="1435"/>
  <unicode hex="0042"/>
  <outline>
    <contour>
      <point x="665" y="1485" type="move" name="top"/>
    </contour>
    <contour>
      <point x="166" y="0" type="line"/>
      <point x="711" y="0" type="line" smooth="yes"/>
      <point x="1056" y="0"/>
      <point x="1349" y="67"/>
      <point x="1349" y="445" type="curve" smooth="yes"/>
      <point x="1349" y="678"/>
      <point x="1177" y="744"/>
      <point x="979" y="777" type="curve"/>
      <point x="1152" y="790"/>
      <point x="1304" y="916"/>
      <point x="1304" y="1113" type="curve" smooth="yes"/>
      <point x="1304" y="1466"/>
      <point x="977" y="1485"/>
      <point x="689" y="1485" type="curve" smooth="yes"/>
      <point x="166" y="1485" type="line"/>
    </contour>
    <contour>
      <point x="578" y="273" type="curve"/>
      <point x="578" y="635" type="line"/>
      <point x="662" y="635" type="line" smooth="yes"/>
      <point x="817" y="635"/>
      <point x="946" y="626"/>
      <point x="946" y="436" type="curve" smooth="yes"/>
      <point x="946" y="287"/>
      <point x="839" y="272"/>
      <point x="732" y="272" type="curve" smooth="yes"/>
      <point x="705" y="272"/>
      <point x="678" y="273"/>
    </contour>
    <contour>
      <point x="578" y="885" type="line"/>
      <point x="578" y="1212" type="line"/>
      <point x="696" y="1212" type="line" smooth="yes"/>
      <point x="820" y="1212"/>
      <point x="940" y="1212"/>
      <point x="940" y="1053" type="curve" smooth="yes"/>
      <point x="940" y="907"/>
      <point x="773" y="885"/>
      <point x="664" y="885" type="curve" smooth="yes"/>
    </contour>
  </outline>
</glyph>
<glyph name="C" format="1">
  <advance width="1375"/>
  <unicode hex="0043"/>
  <outline>
    <contour>
      <point x="852" y="1578" type="move" name="top"/>
    </contour>
    <contour>
      <point x="760" y="0" type="move" name="bot"/>
    </contour>
    <contour>
      <point x="850" y="-22" type="curve" smooth="yes"/>
      <point x="999" y="-22"/>
      <point x="1155" y="13"/>
      <point x="1301" y="84" type="curve"/>
      <point x="1191" y="360" type="line"/>
      <point x="1116" y="323"/>
      <point x="1033" y="303"/>
      <point x="952" y="303" type="curve" smooth="yes"/>
      <point x="738" y="303"/>
      <point x="539" y="444"/>
      <point x="539" y="781" type="curve" smooth="yes"/>
      <point x="539" y="1132"/>
      <point x="732" y="1285"/>
      <point x="952" y="1285" type="curve" smooth="yes"/>
      <point x="1035" y="1285"/>
      <point x="1123" y="1263"/>
      <point x="1205" y="1221" type="curve"/>
      <point x="1316" y="1498" type="line"/>
      <point x="1185" y="1565"/>
      <point x="1031" y="1602"/>
      <point x="878" y="1602" type="curve" smooth="yes"/>
      <point x="487" y="1602"/>
      <point x="98" y="1365"/>
      <point x="98" y="792" type="curve" smooth="yes"/>
      <point x="98" y="236"/>
      <point x="451" y="-22"/>
    </contour>
  </outline>
</glyph>
<glyph name="E" format="1">
  <advance width="1259"/>
  <unicode hex="0045"/>
  <outline>
    <contour>
      <point x="682" y="1485" type="move" name="top"/>
    </contour>
    <contour>
      <point x="727" y="0" type="move" name="bot"/>
    </contour>
    <contour>
      <point x="166" y="0" type="line"/>
      <point x="1158" y="0" type="line"/>
      <point x="1158" y="300" type="line"/>
      <point x="578" y="300" type="line"/>
      <point x="578" y="638" type="line"/>
      <point x="1101" y="638" type="line"/>
      <point x="1101" y="892" type="line"/>
      <point x="578" y="892" type="line"/>
      <point x="578" y="1187" type="line"/>
      <point x="1165" y="1187" type="line"/>
      <point x="1165" y="1485" type="line"/>
      <point x="166" y="1485" type="line"/>
    </contour>
  </outline>
</glyph>
<glyph name="F" format="1">
  <advance width="1262"/>
  <unicode hex="0046"/>
  <outline>
    <contour>
      <point x="764" y="1578" type="move" name="top"/>
    </contour>
    <contour>
      <point x="176" y="0" type="line"/>
      <point x="610" y="0" type="line"/>
      <point x="610" y="614" type="line"/>
      <point x="1168" y="614" type="line"/>
      <point x="1168" y="882" type="line"/>
      <point x="610" y="882" type="line"/>
      <point x="610" y="1261" type="line"/>
      <point x="1216" y="1261" type="line"/>
      <point x="1216" y="1578" type="line"/>
      <point x="176" y="1578" type="line"/>
    </contour>
  </outline>
</glyph>
<glyph name="J" format="1">
  <advance width="927"/>
  <unicode hex="004A"/>
  <outline>
    <contour>
      <point x="547" y="1578" type="move" name="top"/>
    </contour>
    <contour>
      <point x="90" y="-387" type="line"/>
      <point x="497" y="-375"/>
      <point x="751" y="-212"/>
      <point x="751" y="255" type="curve" smooth="yes"/>
      <point x="751" y="1578" type="line"/>
      <point x="313" y="1578" type="line"/>
      <point x="313" y="261" type="line" smooth="yes"/>
      <point x="313" y="-5"/>
      <point x="211" y="-65"/>
      <point x="-2" y="-99" type="curve"/>
    </contour>
  </outline>
</glyph>
<glyph name="L" format="1">
  <advance width="1207"/>
  <unicode hex="004C"/>
  <outline>
    <contour>
      <point x="434" y="1578" type="move" name="top"/>
    </contour>
    <contour>
      <point x="591" y="1162" type="move" name="caron.alt"/>
    </contour>
    <contour>
      <point x="681" y="0" type="move" name="bot"/>
    </contour>
    <contour>
      <point x="402" y="933" type="move" name="mid"/>
    </contour>
    <contour>
      <point x="176" y="0" type="line"/>
      <point x="1186" y="0" type="line"/>
      <point x="1186" y="316" type="line"/>
      <point x="611" y="316" type="line"/>
      <point x="611" y="1578" type="line"/>
      <point x="176" y="1578" type="line"/>
    </contour>
  </outline>
</glyph>
<glyph name="N" format="1">
  <advance width="1714"/>
  <unicode hex="004E"/>
  <outline>
    <contour>
      <point x="884" y="1578" type="move" name="top"/>
    </contour>
    <contour>
      <point x="921" y="0" type="move" name="bot"/>
    </contour>
    <contour>
      <point x="176" y="0" type="line"/>
      <point x="565" y="0" type="line"/>
      <point x="565" y="946" type="line"/>
      <point x="1111" y="0" type="line"/>
      <point x="1538" y="0" type="line"/>
      <point x="1538" y="1578" type="line"/>
      <point x="1151" y="1578" type="line"/>
      <point x="1151" y="652" type="line"/>
      <point x="621" y="1578" type="line"/>
      <point x="176" y="1578" type="line"/>
    </contour>
  </outline>
</glyph>
<glyph name="O" format="1">
  <advance width="1670"/>
  <unicode hex="004F"/>
  <outline>
    <contour>
      <point x="852" y="1578" type="move" name="top"/>
    </contour>
    <contour>
      <point x="902" y="0" type="move" name="ogonek"/>
    </contour>
    <contour>
      <point x="836" y="277" type="curve" smooth="yes"/>
      <point x="608" y="277"/>
      <point x="538" y="492"/>
      <point x="538" y="791" type="curve" smooth="yes"/>
      <point x="538" y="1090"/>
      <point x="608" y="1296"/>
      <point x="836" y="1296" type="curve" smooth="yes"/>
      <point x="1061" y="1296"/>
      <point x="1132" y="1092"/>
      <point x="1132" y="791" type="curve" smooth="yes"/>
      <point x="1132" y="501"/>
      <point x="1068" y="277"/>
    </contour>
    <contour>
      <point x="836" y="-22" type="curve" smooth="yes"/>
      <point x="1328" y="-22"/>
      <point x="1572" y="261"/>
      <point x="1572" y="791" type="curve" smooth="yes"/>
      <point x="1572" y="1329"/>
      <point x="1311" y="1602"/>
      <point x="836" y="1602" type="curve" smooth="yes"/>
      <point x="358" y="1602"/>
      <point x="98" y="1342"/>
      <point x="98" y="791" type="curve" smooth="yes"/>
      <point x="98" y="261"/>
      <point x="342" y="-22"/>
    </contour>
  </outline>
</glyph>
<glyph name="Q" format="1">
  <advance width="1670"/>
  <unicode hex="0051"/>
  <outline>
    <contour>
      <point x="1104" y="-458" type="line"/>
      <point x="1320" y="-261" type="line"/>
      <point x="1107" y="17" type="line"/>
      <point x="1418" y="108"/>
      <point x="1572" y="376"/>
      <point x="1572" y="793" type="curve" smooth="yes"/>
      <point x="1572" y="1329"/>
      <point x="1311" y="1602"/>
      <point x="836" y="1602" type="curve" smooth="yes"/>
      <point x="358" y="1602"/>
      <point x="98" y="1342"/>
      <point x="98" y="793" type="curve" smooth="yes"/>
      <point x="98" y="300"/>
      <point x="314" y="17"/>
      <point x="750" y="-15" type="curve"/>
    </contour>
    <contour>
      <point x="836" y="281" type="curve" smooth="yes"/>
      <point x="608" y="281"/>
      <point x="538" y="494"/>
      <point x="538" y="793" type="curve" smooth="yes"/>
      <point x="538" y="1096"/>
      <point x="608" y="1296"/>
      <point x="836" y="1296" type="curve" smooth="yes"/>
      <point x="1061" y="1296"/>
      <point x="1132" y="1098"/>
      <point x="1132" y="793" type="curve" smooth="yes"/>
      <point x="1132" y="503"/>
      <point x="1068" y="281"/>
    </contour>
  </outline>
</glyph>
<glyph name="R" format="1">
  <advance width="1601"/>
  <unicode hex="0052"/>
  <outline>
    <contour>
      <point x="704" y="1578" type="move" name="top"/>
    </contour>
    <contour>
      <point x="801" y="0" type="move" name="bot"/>
    </contour>
    <contour>
      <point x="176" y="0" type="line"/>
      <point x="612" y="0" type="line"/>
      <point x="612" y="660" type="line"/>
      <point x="755" y="660" type="line" smooth="yes"/>
      <point x="910" y="660"/>
      <point x="985" y="611"/>
      <point x="1006" y="423" type="curve" smooth="yes"/>
      <point x="1054" y="0" type="line"/>
      <point x="1507" y="0" type="line"/>
      <point x="1443" y="518" type="line" smooth="yes"/>
      <point x="1421" y="692"/>
      <point x="1328" y="792"/>
      <point x="1155" y="821" type="curve"/>
      <point x="1345" y="842"/>
      <point x="1457" y="950"/>
      <point x="1457" y="1164" type="curve" smooth="yes"/>
      <point x="1457" y="1381"/>
      <point x="1421" y="1578"/>
      <point x="824" y="1578" type="curve" smooth="yes"/>
      <point x="176" y="1578" type="line"/>
    </contour>
    <contour>
      <point x="612" y="933" type="line"/>
      <point x="612" y="1322" type="line"/>
      <point x="753" y="1322" type="line" smooth="yes"/>
      <point x="967" y="1322"/>
      <point x="1012" y="1246"/>
      <point x="1012" y="1108" type="curve" smooth="yes"/>
      <point x="1012" y="979"/>
      <point x="900" y="933"/>
      <point x="717" y="933" type="curve" smooth="yes"/>
    </contour>
  </outline>
</glyph>
<glyph name="S" format="1">
  <advance width="1356"/>
  <unicode hex="0053"/>
  <outline>
    <contour>
      <point x="692" y="1578" type="move" name="top"/>
    </contour>
    <contour>
      <point x="719" y="0" type="move" name="bot"/>
    </contour>
    <contour>
      <point x="689" y="-20" type="curve" smooth="yes"/>
      <point x="1140" y="-20"/>
      <point x="1259" y="242"/>
      <point x="1259" y="485" type="curve" smooth="yes"/>
      <point x="1259" y="675"/>
      <point x="1223" y="835"/>
      <point x="913" y="946" type="curve" smooth="yes"/>
      <point x="606" y="1056" type="line" smooth="yes"/>
      <point x="544" y="1079"/>
      <point x="522" y="1125"/>
      <point x="526" y="1161" type="curve" smooth="yes"/>
      <point x="535" y="1240"/>
      <point x="575" y="1269"/>
      <point x="691" y="1269" type="curve" smooth="yes"/>
      <point x="807" y="1269"/>
      <point x="963" y="1227"/>
      <point x="1088" y="1181" type="curve"/>
      <point x="1209" y="1466" type="line"/>
      <point x="1048" y="1547"/>
      <point x="841" y="1602"/>
      <point x="662" y="1602" type="curve" smooth="yes"/>
      <point x="371" y="1602"/>
      <point x="120" y="1483"/>
      <point x="113" y="1164" type="curve" smooth="yes"/>
      <point x="108" y="946"/>
      <point x="209" y="791"/>
      <point x="462" y="699" type="curve" smooth="yes"/>
      <point x="741" y="598" type="line" smooth="yes"/>
      <point x="853" y="558"/>
      <point x="879" y="509"/>
      <point x="869" y="430" type="curve" smooth="yes"/>
      <point x="858" y="347"/>
      <point x="789" y="310"/>
      <point x="676" y="310" type="curve" smooth="yes"/>
      <point x="531" y="310"/>
      <point x="345" y="369"/>
      <point x="235" y="435" type="curve"/>
      <point x="115" y="125" type="line"/>
      <point x="302" y="24"/>
      <point x="496" y="-20"/>
    </contour>
  </outline>
</glyph>
<glyph name="T" format="1">
  <advance width="1107"/>
  <unicode hex="0054"/>
  <outline>
    <contour>
      <point x="582" y="1485" type="move" name="top"/>
    </contour>
    <contour>
      <point x="570" y="0" type="move" name="bot"/>
    </contour>
    <contour>
      <point x="351" y="0" type="line"/>
      <point x="765" y="0" type="line"/>
      <point x="765" y="1186" type="line"/>
      <point x="1125" y="1186" type="line"/>
      <point x="1125" y="1485" type="line"/>
      <point x="-17" y="1485" type="line"/>
      <point x="-17" y="1186" type="line"/>
      <point x="351" y="1186" type="line"/>
    </contour>
  </outline>
</glyph>
<glyph name="U" format="1">
  <advance width="1694"/>
  <unicode hex="0055"/>
  <outline>
    <contour>
      <point x="852" y="1578" type="move" name="top"/>
    </contour>
    <contour>
      <point x="902" y="0" type="move" name="ogonek"/>
    </contour>
    <contour>
      <point x="842" y="-22" type="curve" smooth="yes"/>
      <point x="1366" y="-22"/>
      <point x="1534" y="191"/>
      <point x="1534" y="733" type="curve" smooth="yes"/>
      <point x="1534" y="1578" type="line"/>
      <point x="1098" y="1578" type="line"/>
      <point x="1098" y="713" type="line" smooth="yes"/>
      <point x="1098" y="379"/>
      <point x="1036" y="292"/>
      <point x="842" y="292" type="curve" smooth="yes"/>
      <point x="657" y="292"/>
      <point x="597" y="379"/>
      <point x="597" y="713" type="curve" smooth="yes"/>
      <point x="597" y="1578" type="line"/>
      <point x="160" y="1578" type="line"/>
      <point x="160" y="733" type="line" smooth="yes"/>
      <point x="160" y="191"/>
      <point x="326" y="-22"/>
    </contour>
  </outline>
</glyph>
<glyph name="V" format="1">
  <advance width="1643"/>
  <unicode hex="0056"/>
  <outline>
    <contour>
      <point x="616" y="0" type="line"/>
      <point x="1028" y="0" type="line"/>
      <point x="1599" y="1578" type="line"/>
      <point x="1179" y="1578" type="line"/>
      <point x="822" y="509" type="line"/>
      <point x="464" y="1578" type="line"/>
      <point x="44" y="1578" type="line"/>
    </contour>
  </outline>
</glyph>
<glyph name="W" format="1">
  <advance width="2188"/>
  <unicode hex="0057"/>
  <outline>
    <contour>
      <point x="1105" y="1578" type="move" name="top"/>
    </contour>
    <contour>
      <point x="395" y="0" type="line"/>
      <point x="835" y="0" type="line"/>
      <point x="1094" y="973" type="line"/>
      <point x="1330" y="0" type="line"/>
      <point x="1778" y="0" type="line"/>
      <point x="2114" y="1578" type="line"/>
      <point x="1710" y="1578" type="line"/>
      <point x="1526" y="558" type="line"/>
      <point x="1294" y="1469" type="line"/>
      <point x="894" y="1469" type="line"/>
      <point x="649" y="558" type="line"/>
      <point x="478" y="1578" type="line"/>
      <point x="74" y="1578" type="line"/>
    </contour>
  </outline>
</glyph>
<glyph name="X" format="1">
  <advance width="1507"/>
  <unicode hex="0058"/>
  <outline>
    <contour>
      <point x="32" y="0" type="line"/>
      <point x="459" y="0" type="line"/>
      <point x="744" y="457" type="line"/>
      <point x="1017" y="0" type="line"/>
      <point x="1475" y="0" type="line"/>
      <point x="995" y="792" type="line"/>
      <point x="1475" y="1578" type="line"/>
      <point x="1050" y="1578" type="line"/>
      <point x="772" y="1100" type="line"/>
      <point x="487" y="1578" type="line"/>
      <point x="32" y="1578" type="line"/>
      <point x="510" y="796" type="line"/>
    </contour>
  </outline>
</glyph>
<glyph name="Y" format="1">
  <advance width="1357"/>
  <unicode hex="0059"/>
  <outline>
    <contour>
      <point x="689" y="1455" type="move" name="top"/>
    </contour>
    <contour>
      <point x="470" y="0" type="line"/>
      <point x="872" y="0" type="line"/>
      <point x="872" y="551" type="line"/>
      <point x="1349" y="1485" type="line"/>
      <point x="945" y="1485" type="line"/>
      <point x="680" y="942" type="line"/>
      <point x="420" y="1485" type="line"/>
      <point x="8" y="1485" type="line"/>
      <point x="470" y="551" type="line"/>
    </contour>
  </outline>
</glyph>
<glyph name="Z" format="1">
  <advance width="1245"/>
  <unicode hex="005A"/>
  <outline>
    <contour>
      <point x="614" y="1578" type="move" name="top"/>
    </contour>
    <contour>
      <point x="90" y="0" type="line"/>
      <point x="1177" y="0" type="line"/>
      <point x="1177" y="316" type="line"/>
      <point x="566" y="316" type="line"/>
      <point x="1167" y="1329" type="line"/>
      <point x="1167" y="1578" type="line"/>
      <point x="95" y="1578" type="line"/>
      <point x="95" y="1257" type="line"/>
      <point x="693" y="1257" type="line"/>
      <point x="90" y="278" type="line"/>
    </contour>
  </outline>
</glyph>
<glyph name="bracketleft" format="1">
  <advance width="1000"/>
  <unicode hex="005B"/>
  <outline>
    <contour>
      <point x="166" y="-115" type="line"/>
      <point x="906" y="-115" type="line"/>
      <point x="906" y="81" type="line"/>
      <point x="531" y="81" type="line"/>
      <point x="531" y="1491" type="line"/>
      <point x="906" y="1491" type="line"/>
      <point x="906" y="1688" type="line"/>
      <point x="166" y="1688" type="line"/>
    </contour>
  </outline>
</glyph>
<glyph name="bracketright" format="1">
  <advance width="1059"/>
  <unicode hex="005D"/>
  <outline>
    <contour>
      <point x="100" y="-122" type="line"/>
      <point x="883" y="-122" type="line"/>
      <point x="883" y="1786" type="line"/>
      <point x="100" y="1786" type="line"/>
      <point x="100" y="1578" type="line"/>
      <point x="497" y="1578" type="line"/>
      <point x="497" y="86" type="line"/>
      <point x="100" y="86" type="line"/>
    </contour>
  </outline>
</glyph>
<glyph name="asciicircum" format="1">
  <advance width="1365"/>
  <unicode hex="005E"/>
  <outline>
    <contour>
      <point x="80" y="599" type="line"/>
      <point x="408" y="599" type="line"/>
      <point x="681" y="1231" type="line"/>
      <point x="954" y="599" type="line"/>
      <point x="1285" y="599" type="line"/>
      <point x="840" y="1578" type="line"/>
      <point x="525" y="1578" type="line"/>
    </contour>
  </outline>
</glyph>
<glyph name="b" format="1">
  <advance width="1426"/>
  <unicode hex="0062"/>
  <outline>
    <contour>
      <point x="854" y="1162" type="move" name="top"/>
    </contour>
    <contour>
      <point x="851" y="-18" type="curve" smooth="yes"/>
      <point x="1097" y="-18"/>
      <point x="1344" y="166"/>
      <point x="1344" y="588" type="curve" smooth="yes"/>
      <point x="1344" y="982"/>
      <point x="1158" y="1180"/>
      <point x="901" y="1180" type="curve" smooth="yes"/>
      <point x="778" y="1180"/>
      <point x="662" y="1148"/>
      <point x="560" y="1075" type="curve"/>
      <point x="560" y="1647" type="line"/>
      <point x="146" y="1578" type="line"/>
      <point x="146" y="0" type="line"/>
      <point x="432" y="0" type="line"/>
      <point x="489" y="134" type="line"/>
      <point x="582" y="49"/>
      <point x="705" y="-18"/>
    </contour>
    <contour>
      <point x="724" y="232" type="curve" smooth="yes"/>
      <point x="668" y="232"/>
      <point x="612" y="259"/>
      <point x="560" y="302" type="curve"/>
      <point x="560" y="849" type="line"/>
      <point x="635" y="910"/>
      <point x="696" y="928"/>
      <point x="760" y="928" type="curve" smooth="yes"/>
      <point x="861" y="928"/>
      <point x="932" y="852"/>
      <point x="932" y="585" type="curve" smooth="yes"/>
      <point x="932" y="303"/>
      <point x="816" y="232"/>
    </contour>
  </outline>
</glyph>
<glyph name="c" format="1">
  <advance width="1127"/>
  <unicode hex="0063"/>
  <outline>
    <contour>
      <point x="652" y="1162" type="move" name="top"/>
    </contour>
    <contour>
      <point x="649" y="0" type="move" name="bot"/>
    </contour>
    <contour>
      <point x="694" y="-18" type="curve" smooth="yes"/>
      <point x="825" y="-18"/>
      <point x="958" y="16"/>
      <point x="1075" y="88" type="curve"/>
      <point x="967" y="314" type="line"/>
      <point x="900" y="279"/>
      <point x="832" y="260"/>
      <point x="769" y="260" type="curve" smooth="yes"/>
      <point x="618" y="260"/>
      <point x="500" y="366"/>
      <point x="500" y="588" type="curve" smooth="yes"/>
      <point x="500" y="805"/>
      <point x="625" y="900"/>
      <point x="772" y="900" type="curve" smooth="yes"/>
      <point x="839" y="900"/>
      <point x="911" y="879"/>
      <point x="977" y="840" type="curve"/>
      <point x="1075" y="1084" type="line"/>
      <point x="958" y="1158"/>
      <point x="825" y="1180"/>
      <point x="694" y="1180" type="curve" smooth="yes"/>
      <point x="379" y="1180"/>
      <point x="82" y="988"/>
      <point x="82" y="588" type="curve" smooth="yes"/>
      <point x="82" y="188"/>
      <point x="379" y="-18"/>
    </contour>
  </outline>
</glyph>
<glyph name="d" format="1">
  <advance width="1410"/>
  <unicode hex="0064"/>
  <outline>
    <contour>
      <point x="552" y="1162" type="move" name="top"/>
    </contour>
    <contour>
      <point x="1189" y="1162" type="move" name="caron.alt"/>
    </contour>
    <contour>
      <point x="1066" y="1382" type="move" name="mid"/>
    </contour>
    <contour>
      <point x="575" y="-18" type="curve" smooth="yes"/>
      <point x="717" y="-18"/>
      <point x="836" y="45"/>
      <point x="928" y="126" type="curve"/>
      <point x="984" y="0" type="line"/>
      <point x="1270" y="0" type="line"/>
      <point x="1270" y="1647" type="line"/>
      <point x="856" y="1578" type="line"/>
      <point x="856" y="1082" type="line"/>
      <point x="756" y="1150"/>
      <point x="644" y="1180"/>
      <point x="525" y="1180" type="curve" smooth="yes"/>
      <point x="268" y="1180"/>
      <point x="82" y="978"/>
      <point x="82" y="588" type="curve" smooth="yes"/>
      <point x="82" y="166"/>
      <point x="329" y="-18"/>
    </contour>
    <contour>
      <point x="702" y="232" type="curve" smooth="yes"/>
      <point x="610" y="232"/>
      <point x="494" y="303"/>
      <point x="494" y="585" type="curve" smooth="yes"/>
      <point x="494" y="852"/>
      <point x="565" y="924"/>
      <point x="666" y="924" type="curve" smooth="yes"/>
      <point x="727" y="924"/>
      <point x="786" y="907"/>
      <point x="856" y="853" type="curve"/>
      <point x="856" y="294" type="line"/>
      <point x="806" y="255"/>
      <point x="754" y="232"/>
    </contour>
  </outline>
</glyph>
<glyph name="f" format="1">
  <advance width="882"/>
  <unicode hex="0066"/>
  <outline>
    <contour>
      <point x="418" y="1491" type="move" name="top"/>
    </contour>
    <contour>
      <point x="602" y="1580" type="curve" smooth="yes"/>
      <point x="422" y="1580"/>
      <point x="194" y="1500"/>
      <point x="194" y="1116" type="curve" smooth="yes"/>
      <point x="194" y="1096" type="line"/>
      <point x="13" y="1096" type="line"/>
      <point x="13" y="891" type="line"/>
      <point x="194" y="891" type="line"/>
      <point x="194" y="0" type="line"/>
      <point x="583" y="0" type="line"/>
      <point x="583" y="891" type="line"/>
      <point x="880" y="891" type="line"/>
      <point x="880" y="1096" type="line"/>
      <point x="583" y="1096" type="line"/>
      <point x="583" y="1159" type="line" smooth="yes"/>
      <point x="583" y="1265"/>
      <point x="649" y="1296"/>
      <point x="727" y="1296" type="curve" smooth="yes"/>
      <point x="774" y="1296"/>
      <point x="826" y="1285"/>
      <point x="872" y="1271" type="curve"/>
      <point x="926" y="1503" type="line"/>
      <point x="857" y="1547"/>
      <point x="740" y="1580"/>
    </contour>
  </outline>
</glyph>
<glyph name="g" format="1">
  <advance width="1273"/>
  <unicode hex="0067"/>
  <outline>
    <contour>
      <point x="612" y="1162" type="move" name="top"/>
    </contour>
    <contour>
      <point x="604" y="-519" type="curve" smooth="yes"/>
      <point x="896" y="-510"/>
      <point x="1220" y="-448"/>
      <point x="1220" y="-156" type="curve" smooth="yes"/>
      <point x="1220" y="172"/>
      <point x="1042" y="250"/>
      <point x="810" y="250" type="curve" smooth="yes"/>
      <point x="467" y="250" type="line"/>
      <point x="463" y="257"/>
      <point x="454" y="277"/>
      <point x="454" y="310" type="curve" smooth="yes"/>
      <point x="454" y="339"/>
      <point x="467" y="360"/>
      <point x="472" y="367" type="curve"/>
      <point x="492" y="365"/>
      <point x="547" y="362"/>
      <point x="622" y="362" type="curve" smooth="yes"/>
      <point x="939" y="362"/>
      <point x="1104" y="522"/>
      <point x="1104" y="771" type="curve"/>
      <point x="1104" y="853"/>
      <point x="1066" y="907"/>
      <point x="1042" y="939" type="curve"/>
      <point x="1269" y="954" type="line"/>
      <point x="1269" y="1188" type="line"/>
      <point x="1114" y="1189"/>
      <point x="1023" y="1175"/>
      <point x="885" y="1117" type="curve"/>
      <point x="809" y="1153"/>
      <point x="777" y="1180"/>
      <point x="596" y="1180" type="curve" smooth="yes"/>
      <point x="254" y="1180"/>
      <point x="96" y="1019"/>
      <point x="96" y="762" type="curve" smooth="yes"/>
      <point x="96" y="583"/>
      <point x="190" y="517"/>
      <point x="275" y="468" type="curve"/>
      <point x="262" y="460"/>
      <point x="139" y="360"/>
      <point x="139" y="210" type="curve" smooth="yes"/>
      <point x="139" y="130"/>
      <point x="164" y="67"/>
      <point x="263" y="34" type="curve"/>
      <point x="165" y="10"/>
      <point x="82" y="-71"/>
      <point x="82" y="-201" type="curve" smooth="yes"/>
      <point x="82" y="-515"/>
      <point x="401" y="-525"/>
    </contour>
    <contour>
      <point x="600" y="-269" type="curve" smooth="yes"/>
      <point x="427" y="-272"/>
      <point x="416" y="-206"/>
      <point x="416" y="-135" type="curve" smooth="yes"/>
      <point x="416" y="-77"/>
      <point x="441" y="-30"/>
      <point x="460" y="-6" type="curve"/>
      <point x="693" y="-6" type="line" smooth="yes"/>
      <point x="835" y="-6"/>
      <point x="869" y="-23"/>
      <point x="869" y="-110" type="curve" smooth="yes"/>
      <point x="869" y="-276"/>
      <point x="734" y="-267"/>
    </contour>
    <contour>
      <point x="628" y="612" type="curve" smooth="yes"/>
      <point x="511" y="612"/>
      <point x="449" y="670"/>
      <point x="445" y="775" type="curve" smooth="yes"/>
      <point x="440" y="902"/>
      <point x="506" y="944"/>
      <point x="630" y="944" type="curve" smooth="yes"/>
      <point x="736" y="944"/>
      <point x="791" y="893"/>
      <point x="791" y="778" type="curve" smooth="yes"/>
      <point x="791" y="673"/>
      <point x="728" y="612"/>
    </contour>
  </outline>
</glyph>
<glyph name="h" format="1">
  <advance width="1407"/>
  <unicode hex="0068"/>
  <outline>
    <contour>
      <point x="882" y="1162" type="move" name="top"/>
    </contour>
    <contour>
      <point x="144" y="0" type="line"/>
      <point x="556" y="0" type="line"/>
      <point x="556" y="809" type="line"/>
      <point x="622" y="870"/>
      <point x="686" y="900"/>
      <point x="739" y="900" type="curve" smooth="yes"/>
      <point x="815" y="900"/>
      <point x="861" y="874"/>
      <point x="861" y="732" type="curve" smooth="yes"/>
      <point x="861" y="0" type="line"/>
      <point x="1273" y="0" type="line"/>
      <point x="1273" y="753" type="line" smooth="yes"/>
      <point x="1273" y="1136"/>
      <point x="1044" y="1180"/>
      <point x="897" y="1180" type="curve" smooth="yes"/>
      <point x="771" y="1180"/>
      <point x="653" y="1135"/>
      <point x="556" y="1069" type="curve"/>
      <point x="556" y="1647" type="line"/>
      <point x="144" y="1578" type="line"/>
    </contour>
  </outline>
</glyph>
<glyph name="i" format="1">
  <advance width="690"/>
  <unicode hex="0069"/>
  <outline>
    <contour>
      <point x="156" y="0" type="line"/>
      <point x="545" y="0" type="line"/>
      <point x="545" y="1096" type="line"/>
      <point x="156" y="1096" type="line"/>
    </contour>
    <contour>
      <point x="350" y="1280" type="curve" smooth="yes"/>
      <point x="470" y="1280"/>
      <point x="568" y="1371"/>
      <point x="568" y="1483" type="curve" smooth="yes"/>
      <point x="568" y="1603"/>
      <point x="468" y="1686"/>
      <point x="350" y="1686" type="curve" smooth="yes"/>
      <point x="231" y="1686"/>
      <point x="138" y="1603"/>
      <point x="138" y="1483" type="curve" smooth="yes"/>
      <point x="138" y="1376"/>
      <point x="227" y="1280"/>
    </contour>
  </outline>
</glyph>
<glyph name="k" format="1">
  <advance width="1402"/>
  <unicode hex="006B"/>
  <outline>
    <contour>
      <point x="872" y="1162" type="move" name="top"/>
    </contour>
    <contour>
      <point x="769" y="0" type="move" name="bot"/>
    </contour>
    <contour>
      <point x="151" y="0" type="line"/>
      <point x="563" y="0" type="line"/>
      <point x="563" y="412" type="line"/>
      <point x="647" y="489" type="line"/>
      <point x="950" y="0" type="line"/>
      <point x="1414" y="0" type="line"/>
      <point x="932" y="668" type="line"/>
      <point x="1385" y="1162" type="line"/>
      <point x="914" y="1162" type="line"/>
      <point x="563" y="751" type="line"/>
      <point x="563" y="1647" type="line"/>
      <point x="151" y="1578" type="line"/>
    </contour>
  </outline>
</glyph>
<glyph name="l" format="1">
  <advance width="715"/>
  <unicode hex="006C"/>
  <outline>
    <contour>
      <point x="340" y="1578" type="move" name="top"/>
    </contour>
    <contour>
      <point x="573" y="1168" type="move" name="caron.alt"/>
    </contour>
    <contour>
      <point x="388" y="807" type="move" name="mid"/>
    </contour>
    <contour>
      <point x="155" y="0" type="line"/>
      <point x="567" y="0" type="line"/>
      <point x="567" y="1647" type="line"/>
      <point x="155" y="1578" type="line"/>
    </contour>
  </outline>
</glyph>
<glyph name="m" format="1">
  <advance width="2091"/>
  <unicode hex="006D"/>
  <outline>
    <contour>
      <point x="1182" y="1162" type="move" name="top"/>
    </contour>
    <contour>
      <point x="144" y="0" type="line"/>
      <point x="556" y="0" type="line"/>
      <point x="556" y="814" type="line"/>
      <point x="606" y="876"/>
      <point x="661" y="911"/>
      <point x="720" y="911" type="curve" smooth="yes"/>
      <point x="796" y="910"/>
      <point x="847" y="884"/>
      <point x="847" y="742" type="curve" smooth="yes"/>
      <point x="847" y="0" type="line"/>
      <point x="1259" y="0" type="line"/>
      <point x="1259" y="740" type="line" smooth="yes"/>
      <point x="1259" y="772"/>
      <point x="1257" y="802"/>
      <point x="1254" y="830" type="curve"/>
      <point x="1301" y="884"/>
      <point x="1354" y="911"/>
      <point x="1418" y="911" type="curve" smooth="yes"/>
      <point x="1494" y="910"/>
      <point x="1545" y="884"/>
      <point x="1545" y="742" type="curve" smooth="yes"/>
      <point x="1545" y="0" type="line"/>
      <point x="1957" y="0" type="line"/>
      <point x="1957" y="740" type="line" smooth="yes"/>
      <point x="1957" y="1123"/>
      <point x="1723" y="1180"/>
      <point x="1576" y="1180" type="curve" smooth="yes"/>
      <point x="1429" y="1180"/>
      <point x="1299" y="1114"/>
      <point x="1199" y="1015" type="curve"/>
      <point x="1119" y="1153"/>
      <point x="978" y="1180"/>
      <point x="878" y="1180" type="curve" smooth="yes"/>
      <point x="735" y="1180"/>
      <point x="608" y="1112"/>
      <point x="509" y="1015" type="curve"/>
      <point x="458" y="1162" type="line"/>
      <point x="144" y="1162" type="line"/>
    </contour>
  </outline>
</glyph>
<glyph name="n" format="1">
  <advance width="1406"/>
  <unicode hex="006E"/>
  <outline>
    <contour>
      <point x="772" y="1162" type="move" name="top"/>
    </contour>
    <contour>
      <point x="749" y="0" type="move" name="bot"/>
    </contour>
    <contour>
      <point x="146" y="0" type="line"/>
      <point x="558" y="0" type="line"/>
      <point x="558" y="817" type="line"/>
      <point x="624" y="878"/>
      <point x="687" y="900"/>
      <point x="741" y="900" type="curve" smooth="yes"/>
      <point x="817" y="900"/>
      <point x="863" y="874"/>
      <point x="863" y="732" type="curve" smooth="yes"/>
      <point x="863" y="0" type="line"/>
      <point x="1275" y="0" type="line"/>
      <point x="1275" y="753" type="line" smooth="yes"/>
      <point x="1275" y="1136"/>
      <point x="1046" y="1180"/>
      <point x="899" y="1180" type="curve" smooth="yes"/>
      <point x="748" y="1180"/>
      <point x="609" y="1123"/>
      <point x="503" y="1037" type="curve"/>
      <point x="460" y="1162" type="line"/>
      <point x="146" y="1162" type="line"/>
    </contour>
  </outline>
</glyph>
<glyph name="o" format="1">
  <advance width="1275"/>
  <unicode hex="006F"/>
  <outline>
    <contour>
      <point x="639" y="1095" type="move" name="top"/>
    </contour>
    <contour>
      <point x="638" y="245" type="curve" smooth="yes"/>
      <point x="526" y="245"/>
      <point x="470" y="355"/>
      <point x="470" y="552" type="curve" smooth="yes"/>
      <point x="470" y="748"/>
      <point x="526" y="851"/>
      <point x="638" y="851" type="curve" smooth="yes"/>
      <point x="750" y="851"/>
      <point x="807" y="748"/>
      <point x="807" y="552" type="curve" smooth="yes"/>
      <point x="807" y="355"/>
      <point x="750" y="245"/>
    </contour>
    <contour>
      <point x="638" y="-20" type="curve" smooth="yes"/>
      <point x="978" y="-20"/>
      <point x="1198" y="181"/>
      <point x="1198" y="550" type="curve" smooth="yes"/>
      <point x="1198" y="924"/>
      <point x="973" y="1116"/>
      <point x="638" y="1116" type="curve" smooth="yes"/>
      <point x="303" y="1116"/>
      <point x="77" y="924"/>
      <point x="77" y="550" type="curve" smooth="yes"/>
      <point x="77" y="181"/>
      <point x="298" y="-20"/>
    </contour>
  </outline>
</glyph>
<glyph name="p" format="1">
  <advance width="1312"/>
  <unicode hex="0070"/>
  <outline>
    <contour>
      <point x="739" y="1099" type="move" name="top"/>
    </contour>
    <contour>
      <point x="138" y="-488" type="line"/>
      <point x="529" y="-431" type="line"/>
      <point x="529" y="48" type="line"/>
      <point x="599" y="7"/>
      <point x="679" y="-20"/>
      <point x="769" y="-20" type="curve" smooth="yes"/>
      <point x="1001" y="-20"/>
      <point x="1235" y="159"/>
      <point x="1235" y="556" type="curve" smooth="yes"/>
      <point x="1235" y="925"/>
      <point x="1059" y="1116"/>
      <point x="816" y="1116" type="curve" smooth="yes"/>
      <point x="685" y="1116"/>
      <point x="563" y="1077"/>
      <point x="457" y="987" type="curve"/>
      <point x="408" y="1096" type="line"/>
      <point x="138" y="1096" type="line"/>
    </contour>
    <contour>
      <point x="649" y="218" type="curve" smooth="yes"/>
      <point x="608" y="218"/>
      <point x="568" y="233"/>
      <point x="529" y="259" type="curve"/>
      <point x="529" y="824" type="line"/>
      <point x="584" y="861"/>
      <point x="633" y="874"/>
      <point x="683" y="874" type="curve" smooth="yes"/>
      <point x="778" y="874"/>
      <point x="846" y="802"/>
      <point x="846" y="553" type="curve" smooth="yes"/>
      <point x="846" y="288"/>
      <point x="736" y="218"/>
    </contour>
  </outline>
</glyph>
<glyph name="q" format="1">
  <advance width="1389"/>
  <unicode hex="0071"/>
  <outline>
    <contour>
      <point x="1243" y="-456" type="line"/>
      <point x="1243" y="1162" type="line"/>
      <point x="957" y="1162" type="line"/>
      <point x="905" y="1044" type="line"/>
      <point x="793" y="1139"/>
      <point x="664" y="1180"/>
      <point x="525" y="1180" type="curve" smooth="yes"/>
      <point x="268" y="1180"/>
      <point x="82" y="978"/>
      <point x="82" y="588" type="curve" smooth="yes"/>
      <point x="82" y="168"/>
      <point x="329" y="-18"/>
      <point x="575" y="-18" type="curve" smooth="yes"/>
      <point x="670" y="-18"/>
      <point x="755" y="11"/>
      <point x="829" y="54" type="curve"/>
      <point x="829" y="-516" type="line"/>
    </contour>
    <contour>
      <point x="702" y="234" type="curve" smooth="yes"/>
      <point x="610" y="234"/>
      <point x="494" y="305"/>
      <point x="494" y="585" type="curve" smooth="yes"/>
      <point x="494" y="848"/>
      <point x="565" y="924"/>
      <point x="666" y="924" type="curve" smooth="yes"/>
      <point x="719" y="924"/>
      <point x="771" y="911"/>
      <point x="829" y="873" type="curve"/>
      <point x="829" y="277" type="line"/>
      <point x="788" y="250"/>
      <point x="745" y="234"/>
    </contour>
  </outline>
</glyph>
<glyph name="r" format="1">
  <advance width="958"/>
  <unicode hex="0072"/>
  <outline>
    <contour>
      <point x="522" y="1162" type="move" name="top"/>
    </contour>
    <contour>
      <point x="499" y="0" type="move" name="bot"/>
    </contour>
    <contour>
      <point x="150" y="0" type="line"/>
      <point x="562" y="0" type="line"/>
      <point x="562" y="737" type="line"/>
      <point x="678" y="795"/>
      <point x="819" y="836"/>
      <point x="938" y="836" type="curve"/>
      <point x="896" y="1173" type="line"/>
      <point x="746" y="1173"/>
      <point x="620" y="1087"/>
      <point x="527" y="980" type="curve"/>
      <point x="464" y="1162" type="line"/>
      <point x="150" y="1162" type="line"/>
    </contour>
  </outline>
</glyph>
<glyph name="s" format="1">
  <advance width="1040"/>
  <unicode hex="0073"/>
  <outline>
    <contour>
      <point x="503" y="1098" type="move" name="top"/>
    </contour>
    <contour>
      <point x="549" y="0" type="move" name="bot"/>
    </contour>
    <contour>
      <point x="597" y="313" type="curve" smooth="yes"/>
      <point x="597" y="267"/>
      <point x="566" y="236"/>
      <point x="481" y="236" type="curve" smooth="yes"/>
      <point x="377" y="236"/>
      <point x="255" y="283"/>
      <point x="155" y="343" type="curve"/>
      <point x="76" y="97" type="line"/>
      <point x="178" y="41"/>
      <point x="324" y="-20"/>
      <point x="534" y="-20" type="curve" smooth="yes"/>
      <point x="795" y="-20"/>
      <point x="973" y="89"/>
      <point x="973" y="343" type="curve" smooth="yes"/>
      <point x="973" y="457"/>
      <point x="931" y="550"/>
      <point x="684" y="649" type="curve" smooth="yes"/>
      <point x="503" y="722" type="line" smooth="yes"/>
      <point x="463" y="738"/>
      <point x="452" y="759"/>
      <point x="452" y="781" type="curve" smooth="yes"/>
      <point x="452" y="837"/>
      <point x="496" y="852"/>
      <point x="572" y="852" type="curve" smooth="yes"/>
      <point x="654" y="852"/>
      <point x="754" y="826"/>
      <point x="870" y="772" type="curve"/>
      <point x="955" y="1003" type="line"/>
      <point x="888" y="1044"/>
      <point x="740" y="1116"/>
      <point x="546" y="1116" type="curve" smooth="yes"/>
      <point x="219" y="1116"/>
      <point x="75" y="958"/>
      <point x="75" y="782" type="curve" smooth="yes"/>
      <point x="75" y="643"/>
      <point x="134" y="541"/>
      <point x="325" y="464" type="curve" smooth="yes"/>
      <point x="548" y="374" type="line" smooth="yes"/>
      <point x="590" y="357"/>
      <point x="597" y="333"/>
    </contour>
  </outline>
</glyph>
<glyph name="u" format="1">
  <advance width="1348"/>
  <unicode hex="0075"/>
  <outline>
    <contour>
      <point x="663" y="1096" type="move" name="top"/>
    </contour>
    <contour>
      <point x="522" y="-20" type="curve" smooth="yes"/>
      <point x="720" y="-20"/>
      <point x="814" y="64"/>
      <point x="874" y="119" type="curve"/>
      <point x="915" y="0" type="line"/>
      <point x="1212" y="0" type="line"/>
      <point x="1212" y="1096" type="line"/>
      <point x="823" y="1096" type="line"/>
      <point x="823" y="309" type="line"/>
      <point x="795" y="268"/>
      <point x="731" y="218"/>
      <point x="646" y="218" type="curve" smooth="yes"/>
      <point x="580" y="218"/>
      <point x="516" y="253"/>
      <point x="516" y="358" type="curve" smooth="yes"/>
      <point x="516" y="1096" type="line"/>
      <point x="127" y="1096" type="line"/>
      <point x="127" y="424" type="line" smooth="yes"/>
      <point x="127" y="72"/>
      <point x="311" y="-20"/>
    </contour>
  </outline>
</glyph>
<glyph name="w" format="1">
  <advance width="1708"/>
  <unicode hex="0077"/>
  <outline>
    <contour>
      <point x="860" y="1162" type="move" name="top"/>
    </contour>
    <contour>
      <point x="1007" y="0" type="line"/>
      <point x="1401" y="0" type="line"/>
      <point x="1662" y="1162" type="line"/>
      <point x="1298" y="1162" type="line"/>
      <point x="1163" y="434" type="line"/>
      <point x="1002" y="1162" type="line"/>
      <point x="715" y="1162" type="line"/>
      <point x="549" y="444" type="line"/>
      <point x="419" y="1162" type="line"/>
      <point x="46" y="1162" type="line"/>
      <point x="313" y="0" type="line"/>
      <point x="702" y="0" type="line"/>
      <point x="852" y="595" type="line"/>
    </contour>
  </outline>
</glyph>
<glyph name="x" format="1">
  <advance width="1182"/>
  <unicode hex="0078"/>
  <outline>
    <contour>
      <point x="19" y="0" type="line"/>
      <point x="455" y="0" type="line"/>
      <point x="592" y="283" type="line"/>
      <point x="736" y="0" type="line"/>
      <point x="1167" y="0" type="line"/>
      <point x="798" y="552" type="line"/>
      <point x="1172" y="1096" type="line"/>
      <point x="733" y="1096" type="line"/>
      <point x="599" y="832" type="line"/>
      <point x="457" y="1096" type="line"/>
      <point x="10" y="1096" type="line"/>
      <point x="395" y="552" type="line"/>
    </contour>
  </outline>
</glyph>
<glyph name="y" format="1">
  <advance width="1305"/>
  <unicode hex="0079"/>
  <outline>
    <contour>
      <point x="667" y="1162" type="move" name="top"/>
    </contour>
    <contour>
      <point x="245" y="-579" type="line"/>
      <point x="617" y="-548"/>
      <point x="757" y="-397"/>
      <point x="878" y="-30" type="curve" smooth="yes"/>
      <point x="1270" y="1162" type="line"/>
      <point x="879" y="1162" type="line"/>
      <point x="693" y="510" type="line"/>
      <point x="460" y="1162" type="line"/>
      <point x="41" y="1162" type="line"/>
      <point x="502" y="51" type="line"/>
      <point x="450" y="-164"/>
      <point x="386" y="-263"/>
      <point x="127" y="-299" type="curve"/>
    </contour>
  </outline>
</glyph>
<glyph name="braceleft" format="1">
  <advance width="1040"/>
  <unicode hex="007B"/>
  <outline>
    <contour>
      <point x="935" y="-249" type="curve"/>
      <point x="935" y="-1" type="line"/>
      <point x="748" y="19"/>
      <point x="710" y="23"/>
      <point x="710" y="233" type="curve" smooth="yes"/>
      <point x="707" y="571"/>
      <point x="591" y="631"/>
      <point x="477" y="668" type="curve"/>
      <point x="591" y="704"/>
      <point x="707" y="765"/>
      <point x="710" y="1103" type="curve" smooth="yes"/>
      <point x="710" y="1309"/>
      <point x="748" y="1317"/>
      <point x="935" y="1337" type="curve"/>
      <point x="935" y="1586" type="line"/>
      <point x="459" y="1586"/>
      <point x="273" y="1507"/>
      <point x="273" y="1076" type="curve" smooth="yes"/>
      <point x="273" y="860"/>
      <point x="273" y="803"/>
      <point x="70" y="767" type="curve"/>
      <point x="70" y="568" type="line"/>
      <point x="273" y="534"/>
      <point x="273" y="477"/>
      <point x="273" y="260" type="curve" smooth="yes"/>
      <point x="273" y="-171"/>
      <point x="459" y="-249"/>
    </contour>
  </outline>
</glyph>
<glyph name="bar" format="1">
  <advance width="906"/>
  <unicode hex="007C"/>
  <outline>
    <contour>
      <point x="284" y="-152" type="line"/>
      <point x="622" y="-152" type="line"/>
      <point x="622" y="1565" type="line"/>
      <point x="284" y="1565" type="line"/>
    </contour>
  </outline>
</glyph>
<glyph name="asciitilde" format="1">
  <advance width="1299"/>
  <unicode hex="007E"/>
  <outline>
    <contour>
      <point x="184" y="584" type="curve"/>
      <point x="320" y="584" type="line"/>
      <point x="320" y="673"/>
      <point x="351" y="703"/>
      <point x="403" y="703" type="curve" smooth="yes"/>
      <point x="512" y="703"/>
      <point x="715" y="569"/>
      <point x="919" y="569" type="curve" smooth="yes"/>
      <point x="1065" y="569"/>
      <point x="1166" y="719"/>
      <point x="1166" y="943" type="curve"/>
      <point x="1030" y="943" type="line"/>
      <point x="1030" y="870"/>
      <point x="999" y="845"/>
      <point x="947" y="845" type="curve" smooth="yes"/>
      <point x="834" y="845"/>
      <point x="622" y="967"/>
      <point x="425" y="972" type="curve" smooth="yes"/>
      <point x="274" y="972"/>
      <point x="184" y="837"/>
    </contour>
  </outline>
</glyph>
<glyph name="sterling" format="1">
  <advance width="1278"/>
  <unicode hex="00A3"/>
  <outline>
    <contour>
      <point x="180" y="0" type="line"/>
      <point x="1120" y="0" type="line"/>
      <point x="1120" y="318" type="line"/>
      <point x="548" y="318" type="line"/>
      <point x="586" y="344"/>
      <point x="621" y="369"/>
      <point x="647" y="406" type="curve" smooth="yes"/>
      <point x="672" y="442"/>
      <point x="688" y="490"/>
      <point x="688" y="560" type="curve"/>
      <point x="986" y="560" type="line"/>
      <point x="986" y="725" type="line"/>
      <point x="675" y="725" type="line"/>
      <point x="639" y="773"/>
      <point x="603" y="844"/>
      <point x="603" y="904" type="curve" smooth="yes"/>
      <point x="603" y="973"/>
      <point x="677" y="1007"/>
      <point x="770" y="1013" type="curve" smooth="yes"/>
      <point x="863" y="1018"/>
      <point x="975" y="995"/>
      <point x="1050" y="946" type="curve"/>
      <point x="1155" y="1177" type="line"/>
      <point x="1102" y="1223"/>
      <point x="987" y="1322"/>
      <point x="717" y="1322" type="curve" smooth="yes"/>
      <point x="381" y="1322"/>
      <point x="228" y="1167"/>
      <point x="228" y="956" type="curve" smooth="yes"/>
      <point x="228" y="820"/>
      <point x="312" y="744"/>
      <point x="338" y="718" type="curve"/>
      <point x="182" y="718" type="line"/>
      <point x="182" y="560" type="line"/>
      <point x="362" y="561" type="line"/>
      <point x="362" y="484"/>
      <point x="342" y="428"/>
      <point x="309" y="388" type="curve" smooth="yes"/>
      <point x="277" y="348"/>
      <point x="231" y="324"/>
      <point x="180" y="312" type="curve"/>
    </contour>
  </outline>
</glyph>
<glyph name="currency" format="1">
  <advance width="1398"/>
  <unicode hex="00A4"/>
  <outline>
    <contour>
      <point x="295" y="377" type="line"/>
      <point x="484" y="565" type="line"/>
      <point x="550" y="525"/>
      <point x="621" y="505"/>
      <point x="698" y="505" type="curve" smooth="yes"/>
      <point x="785" y="505"/>
      <point x="863" y="529"/>
      <point x="938" y="580" type="curve"/>
      <point x="1141" y="377" type="line"/>
      <point x="1264" y="502" type="line"/>
      <point x="1063" y="704" type="line"/>
      <point x="1115" y="778"/>
      <point x="1139" y="859"/>
      <point x="1139" y="946" type="curve" smooth="yes"/>
      <point x="1139" y="1024"/>
      <point x="1119" y="1095"/>
      <point x="1077" y="1160" type="curve"/>
      <point x="1264" y="1348" type="line"/>
      <point x="1141" y="1472" type="line"/>
      <point x="956" y="1287" type="line"/>
      <point x="887" y="1332"/>
      <point x="813" y="1354"/>
      <point x="731" y="1354" type="curve" smooth="yes"/>
      <point x="644" y="1354"/>
      <point x="564" y="1330"/>
      <point x="489" y="1278" type="curve"/>
      <point x="295" y="1472" type="line"/>
      <point x="171" y="1348" type="line"/>
      <point x="365" y="1153" type="line"/>
      <point x="315" y="1078"/>
      <point x="290" y="1001"/>
      <point x="290" y="914" type="curve" smooth="yes"/>
      <point x="290" y="832"/>
      <point x="312" y="757"/>
      <point x="357" y="688" type="curve"/>
      <point x="171" y="502" type="line"/>
    </contour>
    <contour>
      <point x="716" y="683" type="curve" smooth="yes"/>
      <point x="544" y="683"/>
      <point x="483" y="802"/>
      <point x="483" y="919" type="curve" smooth="yes"/>
      <point x="483" y="1041"/>
      <point x="552" y="1174"/>
      <point x="724" y="1174" type="curve" smooth="yes"/>
      <point x="888" y="1174"/>
      <point x="947" y="1054"/>
      <point x="947" y="937" type="curve" smooth="yes"/>
      <point x="947" y="814"/>
      <point x="882" y="683"/>
    </contour>
  </outline>
</glyph>
<glyph name="brokenbar" format="1">
  <advance width="878"/>
  <unicode hex="00A6"/>
  <outline>
    <contour>
      <point x="265" y="-204" type="line"/>
      <point x="621" y="-204" type="line"/>
      <point x="621" y="564" type="line"/>
      <point x="265" y="564" type="line"/>
    </contour>
    <contour>
      <point x="265" y="933" type="line"/>
      <point x="621" y="933" type="line"/>
      <point x="621" y="1701" type="line"/>
      <point x="265" y="1701" type="line"/>
    </contour>
  </outline>
</glyph>
<glyph name="section" format="1">
  <advance width="1134"/>
  <unicode hex="00A7"/>
  <outline>
    <contour>
      <point x="563" y="-110" type="curve" smooth="yes"/>
      <point x="761" y="-110"/>
      <point x="991" y="-31"/>
      <point x="991" y="216" type="curve" smooth="yes"/>
      <point x="991" y="290"/>
      <point x="973" y="411"/>
      <point x="840" y="472" type="curve"/>
      <point x="951" y="515"/>
      <point x="989" y="610"/>
      <point x="989" y="701" type="curve" smooth="yes"/>
      <point x="989" y="817"/>
      <point x="955" y="906"/>
      <point x="679" y="1013" type="curve" smooth="yes"/>
      <point x="523" y="1074" type="line" smooth="yes"/>
      <point x="449" y="1102"/>
      <point x="432" y="1129"/>
      <point x="432" y="1159" type="curve" smooth="yes"/>
      <point x="432" y="1214"/>
      <point x="472" y="1250"/>
      <point x="587" y="1250" type="curve" smooth="yes"/>
      <point x="684" y="1250"/>
      <point x="806" y="1220"/>
      <point x="877" y="1185" type="curve"/>
      <point x="958" y="1396" type="line"/>
      <point x="832" y="1469"/>
      <point x="675" y="1508"/>
      <point x="530" y="1508" type="curve" smooth="yes"/>
      <point x="306" y="1508"/>
      <point x="112" y="1414"/>
      <point x="112" y="1200" type="curve" smooth="yes"/>
      <point x="112" y="1096"/>
      <point x="154" y="1002"/>
      <point x="267" y="954" type="curve"/>
      <point x="124" y="909"/>
      <point x="112" y="775"/>
      <point x="112" y="725" type="curve" smooth="yes"/>
      <point x="112" y="588"/>
      <point x="127" y="505"/>
      <point x="411" y="409" type="curve" smooth="yes"/>
      <point x="593" y="347" type="line"/>
      <point x="689" y="317"/>
      <point x="699" y="295"/>
      <point x="699" y="246" type="curve" smooth="yes"/>
      <point x="699" y="194"/>
      <point x="672" y="132"/>
      <point x="544" y="132" type="curve" smooth="yes"/>
      <point x="407" y="132"/>
      <point x="273" y="180"/>
      <point x="190" y="235" type="curve"/>
      <point x="107" y="27" type="line"/>
      <point x="226" y="-78"/>
      <point x="467" y="-110"/>
    </contour>
    <contour>
      <point x="547" y="630" type="curve" smooth="yes"/>
      <point x="428" y="630"/>
      <point x="390" y="649"/>
      <point x="390" y="707" type="curve" smooth="yes"/>
      <point x="390" y="767"/>
      <point x="428" y="785"/>
      <point x="547" y="785" type="curve" smooth="yes"/>
      <point x="667" y="785"/>
      <point x="706" y="767"/>
      <point x="706" y="707" type="curve" smooth="yes"/>
      <point x="706" y="649"/>
      <point x="667" y="630"/>
    </contour>
  </outline>
</glyph>
<glyph name="dieresis" format="1">
  <advance width="1411"/>
  <unicode hex="00A8"/>
  <outline>
    <contour>
      <point x="709" y="1162" type="move" name="_top"/>
    </contour>
    <contour>
      <point x="428" y="1298" type="curve" smooth="yes"/>
      <point x="530" y="1298"/>
      <point x="615" y="1376"/>
      <point x="615" y="1480" type="curve" smooth="yes"/>
      <point x="615" y="1584"/>
      <point x="529" y="1663"/>
      <point x="428" y="1663" type="curve" smooth="yes"/>
      <point x="325" y="1663"/>
      <point x="246" y="1584"/>
      <point x="246" y="1480" type="curve" smooth="yes"/>
      <point x="246" y="1381"/>
      <point x="322" y="1298"/>
    </contour>
    <contour>
      <point x="968" y="1298" type="curve" smooth="yes"/>
      <point x="1070" y="1298"/>
      <point x="1154" y="1376"/>
      <point x="1154" y="1480" type="curve" smooth="yes"/>
      <point x="1154" y="1584"/>
      <point x="1069" y="1663"/>
      <point x="968" y="1663" type="curve" smooth="yes"/>
      <point x="866" y="1663"/>
      <point x="786" y="1584"/>
      <point x="786" y="1480" type="curve" smooth="yes"/>
      <point x="786" y="1381"/>
      <point x="862" y="1298"/>
    </contour>
  </outline>
</glyph>
<glyph name="guillemotleft" format="1">
  <advance width="1801"/>
  <unicode hex="00AB"/>
  <outline>
    <contour>
      <point x="850" y="10" type="line"/>
      <point x="850" y="348" type="line"/>
      <point x="538" y="601" type="line"/>
      <point x="851" y="856" type="line"/>
      <point x="851" y="1193" type="line"/>
      <point x="180" y="730" type="line"/>
      <point x="180" y="474" type="line"/>
    </contour>
    <contour>
      <point x="1600" y="10" type="line"/>
      <point x="1600" y="348" type="line"/>
      <point x="1288" y="601" type="line"/>
      <point x="1601" y="856" type="line"/>
      <point x="1601" y="1193" type="line"/>
      <point x="930" y="730" type="line"/>
      <point x="930" y="474" type="line"/>
    </contour>
  </outline>
</glyph>
<glyph name="logicalnot" format="1">
  <advance width="1136"/>
  <unicode hex="00AC"/>
  <outline>
    <contour>
      <point x="818" y="330" type="line"/>
      <point x="1036" y="330" type="line"/>
      <point x="1036" y="1059" type="line"/>
      <point x="87" y="1059" type="line"/>
      <point x="87" y="754" type="line"/>
      <point x="818" y="754" type="line"/>
    </contour>
  </outline>
</glyph>
<glyph name="uni00AD" format="1">
  <advance width="1252"/>
  <unicode hex="00AD"/>
  <outline>
    <contour>
      <point x="180" y="567" type="line"/>
      <point x="1049" y="567" type="line"/>
      <point x="1049" y="862" type="line"/>
      <point x="180" y="862" type="line"/>
    </contour>
  </outline>
</glyph>
<glyph name="registered" format="1">
  <advance width="1936"/>
  <unicode hex="00AE"/>
  <outline>
    <contour>
      <point x="632" y="376" type="line"/>
      <point x="873" y="376" type="line"/>
      <point x="873" y="729" type="line"/>
      <point x="900" y="729" type="line" smooth="yes"/>
      <point x="985" y="729"/>
      <point x="1058" y="702"/>
      <point x="1071" y="598" type="curve" smooth="yes"/>
      <point x="1098" y="376" type="line"/>
      <point x="1339" y="376" type="line"/>
      <point x="1312" y="651" type="line" smooth="yes"/>
      <point x="1300" y="779"/>
      <point x="1211" y="806"/>
      <point x="1074" y="820" type="curve"/>
      <point x="1224" y="823"/>
      <point x="1331" y="863"/>
      <point x="1331" y="1018" type="curve" smooth="yes"/>
      <point x="1331" y="1138"/>
      <point x="1328" y="1247"/>
      <point x="927" y="1247" type="curve" smooth="yes"/>
      <point x="632" y="1247" type="line"/>
    </contour>
    <contour>
      <point x="873" y="880" type="line"/>
      <point x="873" y="1105" type="line"/>
      <point x="943" y="1105" type="line" smooth="yes"/>
      <point x="1061" y="1105"/>
      <point x="1085" y="1063"/>
      <point x="1085" y="987" type="curve" smooth="yes"/>
      <point x="1085" y="905"/>
      <point x="1024" y="880"/>
      <point x="923" y="880" type="curve" smooth="yes"/>
    </contour>
    <contour>
      <point x="968" y="145" type="curve" smooth="yes"/>
      <point x="564" y="145"/>
      <point x="314" y="389"/>
      <point x="314" y="796" type="curve" smooth="yes"/>
      <point x="314" y="1203"/>
      <point x="564" y="1447"/>
      <point x="968" y="1447" type="curve" smooth="yes"/>
      <point x="1372" y="1447"/>
      <point x="1622" y="1203"/>
      <point x="1622" y="796" type="curve" smooth="yes"/>
      <point x="1622" y="389"/>
      <point x="1372" y="145"/>
    </contour>
    <contour>
      <point x="968" y="-15" type="curve" smooth="yes"/>
      <point x="1489" y="-15"/>
      <point x="1822" y="306"/>
      <point x="1822" y="796" type="curve" smooth="yes"/>
      <point x="1822" y="1286"/>
      <point x="1489" y="1607"/>
      <point x="968" y="1607" type="curve" smooth="yes"/>
      <point x="447" y="1607"/>
      <point x="114" y="1286"/>
      <point x="114" y="796" type="curve" smooth="yes"/>
      <point x="114" y="306"/>
      <point x="447" y="-15"/>
    </contour>
  </outline>
</glyph>
<glyph name="macron" format="1">
  <advance width="590"/>
  <unicode hex="00AF"/>
  <outline>
    <contour>
      <point x="306" y="1162" type="move" name="_top"/>
    </contour>
    <contour>
      <point x="311" y="1428" type="move" name="_mid"/>
    </contour>
    <contour>
      <point x="-48" y="1340" type="line"/>
      <point x="644" y="1340" type="line"/>
      <point x="644" y="1521" type="line"/>
      <point x="-48" y="1521" type="line"/>
    </contour>
  </outline>
</glyph>
<glyph name="plusminus" format="1">
  <advance width="1243"/>
  <unicode hex="00B1"/>
  <outline>
    <contour>
      <point x="450" y="511" type="line"/>
      <point x="795" y="511" type="line"/>
      <point x="795" y="868" type="line"/>
      <point x="1139" y="868" type="line"/>
      <point x="1139" y="1162" type="line"/>
      <point x="795" y="1162" type="line"/>
      <point x="795" y="1514" type="line"/>
      <point x="450" y="1514" type="line"/>
      <point x="450" y="1162" type="line"/>
      <point x="106" y="1162" type="line"/>
      <point x="106" y="868" type="line"/>
      <point x="450" y="868" type="line"/>
    </contour>
    <contour>
      <point x="167" y="0" type="line"/>
      <point x="1077" y="0" type="line"/>
      <point x="1077" y="281" type="line"/>
      <point x="167" y="281" type="line"/>
    </contour>
  </outline>
</glyph>
<glyph name="uni00B3" format="1">
  <advance width="1253"/>
  <unicode hex="00B3"/>
  <outline>
    <contour>
      <point x="625" y="633" type="curve" smooth="yes"/>
      <point x="839" y="633"/>
      <point x="1019" y="727"/>
      <point x="1019" y="974" type="curve" smooth="yes"/>
      <point x="1019" y="1026"/>
      <point x="994" y="1199"/>
      <point x="808" y="1230" type="curve"/>
      <point x="913" y="1255"/>
      <point x="976" y="1365"/>
      <point x="980" y="1460" type="curve" smooth="yes"/>
      <point x="987" y="1679"/>
      <point x="821" y="1770"/>
      <point x="620" y="1770" type="curve" smooth="yes"/>
      <point x="496" y="1769"/>
      <point x="356" y="1734"/>
      <point x="239" y="1674" type="curve"/>
      <point x="336" y="1466" type="line"/>
      <point x="422" y="1509"/>
      <point x="507" y="1529"/>
      <point x="566" y="1529" type="curve" smooth="yes"/>
      <point x="657" y="1529"/>
      <point x="687" y="1485"/>
      <point x="687" y="1428" type="curve" smooth="yes"/>
      <point x="687" y="1344"/>
      <point x="615" y="1309"/>
      <point x="466" y="1309" type="curve"/>
      <point x="466" y="1124" type="line"/>
      <point x="629" y="1129"/>
      <point x="704" y="1080"/>
      <point x="704" y="991" type="curve" smooth="yes"/>
      <point x="704" y="903"/>
      <point x="644" y="869"/>
      <point x="563" y="869" type="curve" smooth="yes"/>
      <point x="500" y="869"/>
      <point x="416" y="889"/>
      <point x="339" y="925" type="curve"/>
      <point x="270" y="707" type="line"/>
      <point x="382" y="661"/>
      <point x="509" y="633"/>
    </contour>
  </outline>
</glyph>
<glyph name="acute" format="1">
  <advance width="1355"/>
  <unicode hex="00B4"/>
  <outline>
    <contour>
      <point x="548" y="1162" type="move" name="_top"/>
    </contour>
    <contour>
      <point x="516" y="1345" type="line"/>
      <point x="1099" y="1684" type="line"/>
      <point x="890" y="1958" type="line"/>
      <point x="382" y="1514" type="line"/>
    </contour>
  </outline>
</glyph>
<glyph name="periodcentered" format="1">
  <advance width="828"/>
  <unicode hex="00B7"/>
  <outline>
    <contour>
      <point x="1" y="892" type="move" name="_mid"/>
    </contour>
    <contour>
      <point x="538" y="669" type="curve" smooth="yes"/>
      <point x="664" y="669"/>
      <point x="768" y="765"/>
      <point x="768" y="893" type="curve" smooth="yes"/>
      <point x="768" y="1021"/>
      <point x="662" y="1118"/>
      <point x="538" y="1118" type="curve" smooth="yes"/>
      <point x="411" y="1118"/>
      <point x="313" y="1021"/>
      <point x="313" y="893" type="curve" smooth="yes"/>
      <point x="313" y="771"/>
      <point x="407" y="669"/>
    </contour>
  </outline>
</glyph>
<glyph name="cedilla" format="1">
  <advance width="720"/>
  <unicode hex="00B8"/>
  <outline>
    <contour>
      <point x="213" y="0" type="move" name="_bot"/>
    </contour>
    <contour>
      <point x="241" y="-443" type="curve" smooth="yes"/>
      <point x="354" y="-443"/>
      <point x="454" y="-384"/>
      <point x="454" y="-238" type="curve" smooth="yes"/>
      <point x="449" y="-91"/>
      <point x="297" y="-75"/>
      <point x="243" y="-75" type="curve"/>
      <point x="257" y="0" type="line"/>
      <point x="140" y="0" type="line"/>
      <point x="126" y="-139" type="line"/>
      <point x="271" y="-139"/>
      <point x="295" y="-178"/>
      <point x="295" y="-248" type="curve" smooth="yes"/>
      <point x="295" y="-304"/>
      <point x="249" y="-324"/>
      <point x="195" y="-324" type="curve" smooth="yes"/>
      <point x="147" y="-324"/>
      <point x="91" y="-307"/>
      <point x="59" y="-285" type="curve"/>
      <point x="29" y="-380" type="line"/>
      <point x="91" y="-419"/>
      <point x="168" y="-443"/>
    </contour>
  </outline>
</glyph>
<glyph name="uni00B9" format="1">
  <advance width="1029"/>
  <unicode hex="00B9"/>
  <outline>
    <contour>
      <point x="400" y="698" type="line"/>
      <point x="703" y="698" type="line"/>
      <point x="703" y="1626" type="line"/>
      <point x="426" y="1626" type="line"/>
      <point x="162" y="1514" type="line"/>
      <point x="247" y="1306" type="line"/>
      <point x="400" y="1379" type="line"/>
    </contour>
  </outline>
</glyph>
<glyph name="onequarter" format="1">
  <advance width="2114"/>
  <unicode hex="00BC"/>
  <outline>
    <contour>
      <point x="1902" y="-17" type="line"/>
      <point x="1902" y="186" type="line"/>
      <point x="2029" y="186" type="line"/>
      <point x="2029" y="396" type="line"/>
      <point x="1902" y="396" type="line"/>
      <point x="1902" y="1009" type="line"/>
      <point x="1678" y="1068" type="line"/>
      <point x="1204" y="357" type="line"/>
      <point x="1239" y="186" type="line"/>
      <point x="1656" y="186" type="line"/>
      <point x="1656" y="0" type="line"/>
    </contour>
    <contour>
      <point x="301" y="625" type="line"/>
      <point x="576" y="625" type="line"/>
      <point x="576" y="1491" type="line"/>
      <point x="390" y="1535" type="line"/>
      <point x="46" y="1377" type="line"/>
      <point x="130" y="1188" type="line"/>
      <point x="301" y="1272" type="line"/>
    </contour>
    <contour>
      <point x="639" y="-86" type="line"/>
      <point x="1583" y="1493" type="line"/>
      <point x="1383" y="1604" type="line"/>
      <point x="436" y="20" type="line"/>
    </contour>
    <contour>
      <point x="1471" y="394" type="line"/>
      <point x="1656" y="693" type="line"/>
      <point x="1656" y="394" type="line"/>
    </contour>
  </outline>
</glyph>
<glyph name="onehalf" format="1">
  <advance width="2146"/>
  <unicode hex="00BD"/>
  <outline>
    <contour>
      <point x="1368" y="0" type="line"/>
      <point x="2036" y="0" type="line"/>
      <point x="2036" y="206" type="line"/>
      <point x="1761" y="206" type="line"/>
      <point x="1802" y="237" type="line"/>
      <point x="1966" y="359"/>
      <point x="2044" y="462"/>
      <point x="2044" y="605" type="curve" smooth="yes"/>
      <point x="2044" y="819"/>
      <point x="1879" y="908"/>
      <point x="1695" y="908" type="curve" smooth="yes"/>
      <point x="1560" y="908"/>
      <point x="1414" y="861"/>
      <point x="1314" y="779" type="curve"/>
      <point x="1408" y="591" type="line"/>
      <point x="1491" y="641"/>
      <point x="1584" y="672"/>
      <point x="1655" y="672" type="curve" smooth="yes"/>
      <point x="1723" y="672"/>
      <point x="1771" y="643"/>
      <point x="1771" y="574" type="curve" smooth="yes"/>
      <point x="1771" y="507"/>
      <point x="1727" y="440"/>
      <point x="1645" y="380" type="curve" smooth="yes"/>
      <point x="1368" y="178" type="line"/>
    </contour>
    <contour>
      <point x="297" y="625" type="line"/>
      <point x="573" y="625" type="line"/>
      <point x="573" y="1491" type="line"/>
      <point x="387" y="1535" type="line"/>
      <point x="43" y="1377" type="line"/>
      <point x="127" y="1188" type="line"/>
      <point x="297" y="1272" type="line"/>
    </contour>
    <contour>
      <point x="635" y="-86" type="line"/>
      <point x="1579" y="1493" type="line"/>
      <point x="1380" y="1604" type="line"/>
      <point x="432" y="20" type="line"/>
    </contour>
  </outline>
</glyph>
<glyph name="threequarters" format="1">
  <advance width="2361"/>
  <unicode hex="00BE"/>
  <outline>
    <contour>
      <point x="475" y="483" type="curve" smooth="yes"/>
      <point x="689" y="483"/>
      <point x="869" y="577"/>
      <point x="869" y="824" type="curve" smooth="yes"/>
      <point x="869" y="876"/>
      <point x="844" y="1049"/>
      <point x="658" y="1080" type="curve"/>
      <point x="763" y="1105"/>
      <point x="826" y="1215"/>
      <point x="830" y="1310" type="curve" smooth="yes"/>
      <point x="837" y="1529"/>
      <point x="671" y="1620"/>
      <point x="470" y="1620" type="curve" smooth="yes"/>
      <point x="346" y="1619"/>
      <point x="206" y="1584"/>
      <point x="89" y="1524" type="curve"/>
      <point x="196" y="1306" type="line"/>
      <point x="275" y="1349"/>
      <point x="350" y="1369"/>
      <point x="409" y="1369" type="curve" smooth="yes"/>
      <point x="500" y="1369"/>
      <point x="530" y="1325"/>
      <point x="530" y="1278" type="curve" smooth="yes"/>
      <point x="530" y="1204"/>
      <point x="458" y="1169"/>
      <point x="316" y="1169" type="curve"/>
      <point x="316" y="964" type="line"/>
      <point x="472" y="969"/>
      <point x="547" y="920"/>
      <point x="547" y="841" type="curve" smooth="yes"/>
      <point x="547" y="763"/>
      <point x="487" y="729"/>
      <point x="406" y="729" type="curve" smooth="yes"/>
      <point x="343" y="729"/>
      <point x="269" y="749"/>
      <point x="199" y="785" type="curve"/>
      <point x="120" y="557" type="line"/>
      <point x="232" y="511"/>
      <point x="359" y="483"/>
    </contour>
    <contour>
      <point x="2157" y="-18" type="line"/>
      <point x="2157" y="197" type="line"/>
      <point x="2291" y="197" type="line"/>
      <point x="2291" y="419" type="line"/>
      <point x="2157" y="419" type="line"/>
      <point x="2157" y="1068" type="line"/>
      <point x="1920" y="1130" type="line"/>
      <point x="1418" y="378" type="line"/>
      <point x="1455" y="197" type="line"/>
      <point x="1896" y="197" type="line"/>
      <point x="1896" y="0" type="line"/>
    </contour>
    <contour>
      <point x="870" y="-91" type="line"/>
      <point x="1869" y="1580" type="line"/>
      <point x="1658" y="1697" type="line"/>
      <point x="655" y="21" type="line"/>
    </contour>
    <contour>
      <point x="1681" y="417" type="line"/>
      <point x="1896" y="753" type="line"/>
      <point x="1896" y="417" type="line"/>
    </contour>
  </outline>
</glyph>
<glyph name="AE" format="1">
  <advance width="2204"/>
  <unicode hex="00C6"/>
  <outline>
    <contour>
      <point x="1439" y="1578" type="move" name="top"/>
    </contour>
    <contour>
      <point x="18" y="0" type="line"/>
      <point x="506" y="0" type="line"/>
      <point x="640" y="322" type="line"/>
      <point x="1034" y="322" type="line"/>
      <point x="1034" y="0" type="line"/>
      <point x="2084" y="0" type="line"/>
      <point x="2084" y="317" type="line"/>
      <point x="1471" y="317" type="line"/>
      <point x="1471" y="675" type="line"/>
      <point x="1972" y="675" type="line"/>
      <point x="1972" y="944" type="line"/>
      <point x="1472" y="944" type="line"/>
      <point x="1472" y="1262" type="line"/>
      <point x="2092" y="1262" type="line"/>
      <point x="2092" y="1578" type="line"/>
      <point x="733" y="1578" type="line"/>
    </contour>
    <contour>
      <point x="737" y="590" type="line"/>
      <point x="1035" y="1298" type="line"/>
      <point x="1035" y="590" type="line"/>
    </contour>
  </outline>
</glyph>
<glyph name="multiply" format="1">
  <advance width="1479"/>
  <unicode hex="00D7"/>
  <outline>
    <contour>
      <point x="492" y="80" type="line"/>
      <point x="772" y="337" type="line"/>
      <point x="1051" y="80" type="line"/>
      <point x="1264" y="316" type="line"/>
      <point x="1004" y="556" type="line"/>
      <point x="1264" y="794" type="line"/>
      <point x="1051" y="1030" type="line"/>
      <point x="772" y="773" type="line"/>
      <point x="492" y="1030" type="line"/>
      <point x="279" y="794" type="line"/>
      <point x="539" y="556" type="line"/>
      <point x="279" y="316" type="line"/>
    </contour>
  </outline>
</glyph>
<glyph name="germandbls" format="1">
  <advance width="1573"/>
  <unicode hex="00DF"/>
  <outline>
    <contour>
      <point x="650" y="-211" type="line"/>
      <point x="1110" y="-211"/>
      <point x="1511" y="-21"/>
      <point x="1511" y="321" type="curve" smooth="yes"/>
      <point x="1511" y="585"/>
      <point x="1352" y="722"/>
      <point x="1020" y="765" type="curve"/>
      <point x="1276" y="797"/>
      <point x="1369" y="935"/>
      <point x="1369" y="1087" type="curve" smooth="yes"/>
      <point x="1369" y="1190"/>
      <point x="1338" y="1488"/>
      <point x="789" y="1492" type="curve" smooth="yes"/>
      <point x="345" y="1492"/>
      <point x="142" y="1289"/>
      <point x="142" y="902" type="curve" smooth="yes"/>
      <point x="142" y="2" type="line"/>
      <point x="557" y="-6" type="line"/>
      <point x="557" y="912" type="line" smooth="yes"/>
      <point x="557" y="1171"/>
      <point x="628" y="1223"/>
      <point x="789" y="1223" type="curve" smooth="yes"/>
      <point x="1042" y="1223"/>
      <point x="1008" y="1068"/>
      <point x="1008" y="1049" type="curve" smooth="yes"/>
      <point x="1008" y="931"/>
      <point x="933" y="861"/>
      <point x="757" y="858" type="curve"/>
      <point x="698" y="858" type="line"/>
      <point x="699" y="668"/>
      <point x="698" y="623"/>
      <point x="698" y="620" type="curve"/>
      <point x="1027" y="620"/>
      <point x="1098" y="483"/>
      <point x="1098" y="319" type="curve" smooth="yes"/>
      <point x="1098" y="251"/>
      <point x="1060" y="140"/>
      <point x="648" y="100" type="curve"/>
    </contour>
  </outline>
</glyph>
<glyph name="ae" format="1">
  <advance width="1874"/>
  <unicode hex="00E6"/>
  <outline>
    <contour>
      <point x="959" y="1162" type="move" name="top"/>
    </contour>
    <contour>
      <point x="479" y="-18" type="curve" smooth="yes"/>
      <point x="668" y="-18"/>
      <point x="849" y="45"/>
      <point x="924" y="197" type="curve"/>
      <point x="974" y="49"/>
      <point x="1133" y="-18"/>
      <point x="1296" y="-18" type="curve" smooth="yes"/>
      <point x="1501" y="-18"/>
      <point x="1640" y="13"/>
      <point x="1774" y="97" type="curve"/>
      <point x="1686" y="334" type="line"/>
      <point x="1575" y="277"/>
      <point x="1476" y="260"/>
      <point x="1371" y="260" type="curve" smooth="yes"/>
      <point x="1212" y="260"/>
      <point x="1128" y="347"/>
      <point x="1119" y="478" type="curve"/>
      <point x="1774" y="478" type="line"/>
      <point x="1778" y="510"/>
      <point x="1784" y="576"/>
      <point x="1784" y="682" type="curve" smooth="yes"/>
      <point x="1784" y="1000"/>
      <point x="1603" y="1180"/>
      <point x="1310" y="1180" type="curve" smooth="yes"/>
      <point x="1132" y="1180"/>
      <point x="962" y="1077"/>
      <point x="924" y="964" type="curve"/>
      <point x="899" y="1128"/>
      <point x="745" y="1180"/>
      <point x="602" y="1180" type="curve" smooth="yes"/>
      <point x="419" y="1180"/>
      <point x="251" y="1125"/>
      <point x="147" y="1085" type="curve"/>
      <point x="218" y="833" type="line"/>
      <point x="272" y="853"/>
      <point x="417" y="909"/>
      <point x="567" y="909" type="curve" smooth="yes"/>
      <point x="754" y="909"/>
      <point x="746" y="760"/>
      <point x="746" y="696" type="curve" smooth="yes"/>
      <point x="746" y="678" type="line"/>
      <point x="717" y="686"/>
      <point x="632" y="702"/>
      <point x="543" y="702" type="curve" smooth="yes"/>
      <point x="360" y="702"/>
      <point x="84" y="653"/>
      <point x="78" y="369" type="curve" smooth="yes"/>
      <point x="73" y="111"/>
      <point x="216" y="-18"/>
    </contour>
    <contour>
      <point x="579" y="255" type="curve" smooth="yes"/>
      <point x="512" y="255"/>
      <point x="458" y="318"/>
      <point x="458" y="396" type="curve" smooth="yes"/>
      <point x="458" y="484"/>
      <point x="503" y="530"/>
      <point x="676" y="530" type="curve" smooth="yes"/>
      <point x="690" y="530"/>
      <point x="719" y="529"/>
      <point x="746" y="527" type="curve"/>
      <point x="746" y="325" type="line"/>
      <point x="690" y="276"/>
      <point x="637" y="255"/>
    </contour>
    <contour>
      <point x="1124" y="699" type="line"/>
      <point x="1124" y="837"/>
      <point x="1189" y="921"/>
      <point x="1300" y="921" type="curve" smooth="yes"/>
      <point x="1381" y="921"/>
      <point x="1444" y="865"/>
      <point x="1444" y="699" type="curve"/>
    </contour>
  </outline>
</glyph>
<glyph name="divide" format="1">
  <advance width="1294"/>
  <unicode hex="00F7"/>
  <outline>
    <contour>
      <point x="660" y="70" type="curve" smooth="yes"/>
      <point x="789" y="70"/>
      <point x="869" y="148"/>
      <point x="869" y="273" type="curve" smooth="yes"/>
      <point x="869" y="397"/>
      <point x="789" y="475"/>
      <point x="660" y="475" type="curve" smooth="yes"/>
      <point x="534" y="475"/>
      <point x="455" y="397"/>
      <point x="455" y="273" type="curve" smooth="yes"/>
      <point x="455" y="148"/>
      <point x="534" y="70"/>
    </contour>
    <contour>
      <point x="123" y="619" type="line"/>
      <point x="1190" y="619" type="line"/>
      <point x="1190" y="877" type="line"/>
      <point x="123" y="877" type="line"/>
    </contour>
    <contour>
      <point x="660" y="1008" type="curve" smooth="yes"/>
      <point x="786" y="1008"/>
      <point x="865" y="1087"/>
      <point x="865" y="1211" type="curve" smooth="yes"/>
      <point x="865" y="1336"/>
      <point x="786" y="1414"/>
      <point x="660" y="1414" type="curve" smooth="yes"/>
      <point x="531" y="1414"/>
      <point x="450" y="1336"/>
      <point x="450" y="1211" type="curve" smooth="yes"/>
      <point x="450" y="1087"/>
      <point x="531" y="1008"/>
    </contour>
  </outline>
</glyph>
<glyph name="thorn" format="1">
  <advance width="1389"/>
  <unicode hex="00FE"/>
  <outline>
    <contour>
      <point x="146" y="-438" type="line"/>
      <point x="560" y="-399" type="line"/>
      <point x="560" y="54" type="line"/>
      <point x="634" y="11"/>
      <point x="719" y="-18"/>
      <point x="814" y="-18" type="curve" smooth="yes"/>
      <point x="1060" y="-18"/>
      <point x="1307" y="168"/>
      <point x="1307" y="588" type="curve" smooth="yes"/>
      <point x="1307" y="978"/>
      <point x="1121" y="1180"/>
      <point x="864" y="1180" type="curve" smooth="yes"/>
      <point x="755" y="1180"/>
      <point x="652" y="1155"/>
      <point x="558" y="1098" type="curve"/>
      <point x="556" y="1578" type="line"/>
      <point x="146" y="1578" type="line"/>
    </contour>
    <contour>
      <point x="687" y="234" type="curve" smooth="yes"/>
      <point x="644" y="234"/>
      <point x="601" y="250"/>
      <point x="560" y="277" type="curve"/>
      <point x="560" y="872" type="line"/>
      <point x="618" y="911"/>
      <point x="670" y="924"/>
      <point x="723" y="924" type="curve" smooth="yes"/>
      <point x="824" y="924"/>
      <point x="895" y="848"/>
      <point x="895" y="585" type="curve" smooth="yes"/>
      <point x="895" y="305"/>
      <point x="779" y="234"/>
    </contour>
  </outline>
</glyph>
<glyph name="kgreenlandic" format="1">
  <advance width="1319"/>
  <unicode hex="0138"/>
  <outline>
    <contour>
      <point x="138" y="0" type="line"/>
      <point x="528" y="0" type="line"/>
      <point x="528" y="350" type="line"/>
      <point x="607" y="429" type="line"/>
      <point x="868" y="0" type="line"/>
      <point x="1318" y="0" type="line"/>
      <point x="862" y="609" type="line"/>
      <point x="1331" y="1098" type="line"/>
      <point x="884" y="1098" type="line"/>
      <point x="528" y="683" type="line"/>
      <point x="528" y="1098" type="line"/>
      <point x="138" y="1098" type="line"/>
    </contour>
  </outline>
</glyph>
<glyph name="Lslash" format="1">
  <advance width="1205"/>
  <unicode hex="0141"/>
  <outline>
    <contour>
      <point x="1" y="422" type="line"/>
      <point x="839" y="986" type="line"/>
      <point x="839" y="1227" type="line"/>
      <point x="1" y="663" type="line"/>
    </contour>
    <component base="L"/>
  </outline>
</glyph>
<glyph name="lslash" format="1">
  <advance width="715"/>
  <unicode hex="0142"/>
  <outline>
    <contour>
      <point x="-15" y="462" type="line"/>
      <point x="752" y="922" type="line"/>
      <point x="752" y="1162" type="line"/>
      <point x="-15" y="692" type="line"/>
    </contour>
    <component base="l"/>
  </outline>
</glyph>
<glyph name="Eng" format="1">
  <advance width="1710"/>
  <unicode hex="014A"/>
  <outline>
    <contour>
      <point x="1043" y="-600" type="line"/>
      <point x="1358" y="-524"/>
      <point x="1536" y="-416"/>
      <point x="1536" y="-101" type="curve" smooth="yes"/>
      <point x="1536" y="261" type="line"/>
      <point x="1124" y="261" type="line"/>
      <point x="1124" y="39" type="line" smooth="yes"/>
      <point x="1124" y="-192"/>
      <point x="1124" y="-227"/>
      <point x="907" y="-318" type="curve"/>
    </contour>
    <component base="N"/>
  </outline>
</glyph>
<glyph name="eng" format="1">
  <advance width="1406"/>
  <unicode hex="014B"/>
  <outline>
    <contour>
      <point x="781" y="-600" type="line"/>
      <point x="1096" y="-524"/>
      <point x="1274" y="-416"/>
      <point x="1274" y="-101" type="curve" smooth="yes"/>
      <point x="1274" y="261" type="line"/>
      <point x="862" y="261" type="line"/>
      <point x="862" y="39" type="line" smooth="yes"/>
      <point x="862" y="-192"/>
      <point x="862" y="-227"/>
      <point x="645" y="-318" type="curve"/>
    </contour>
    <component base="n"/>
  </outline>
</glyph>
<glyph name="uni0237" format="1">
  <advance width="738"/>
  <unicode hex="0237"/>
  <outline>
    <contour>
      <point x="354" y="1098" type="move" name="top"/>
    </contour>
    <contour>
      <point x="80" y="-472" type="line"/>
      <point x="378" y="-400"/>
      <point x="541" y="-298"/>
      <point x="541" y="0" type="curve" smooth="yes"/>
      <point x="541" y="1098" type="line"/>
      <point x="152" y="1098" type="line"/>
      <point x="152" y="93" type="line" smooth="yes"/>
      <point x="152" y="-90"/>
      <point x="144" y="-125"/>
      <point x="-48" y="-205" type="curve"/>
    </contour>
  </outline>
</glyph>
<glyph name="circumflex" format="1">
  <advance width="1365"/>
  <unicode hex="02C6"/>
  <outline>
    <contour>
      <point x="688" y="1162" type="move" name="_top"/>
    </contour>
    <contour>
      <point x="210" y="1304" type="line"/>
      <point x="581" y="1304" type="line"/>
      <point x="681" y="1547" type="line"/>
      <point x="790" y="1304" type="line"/>
      <point x="1165" y="1304" type="line"/>
      <point x="880" y="1767" type="line"/>
      <point x="485" y="1767" type="line"/>
    </contour>
  </outline>
</glyph>
<glyph name="caron" format="1">
  <advance width="1289"/>
  <unicode hex="02C7"/>
  <outline>
    <contour>
      <point x="650" y="1098" type="move" name="_top"/>
    </contour>
    <contour>
      <point x="458" y="1232" type="line"/>
      <point x="832" y="1232" type="line"/>
      <point x="1101" y="1670" type="line"/>
      <point x="747" y="1670" type="line"/>
      <point x="644" y="1440" type="line"/>
      <point x="549" y="1670" type="line"/>
      <point x="198" y="1670" type="line"/>
    </contour>
  </outline>
</glyph>
<glyph name="uni02C9" format="1">
  <advance width="654"/>
  <unicode hex="02C9"/>
  <outline>
    <contour>
      <point x="334" y="1098" type="move" name="_top"/>
    </contour>
    <contour>
      <point x="336" y="1350" type="move" name="_mid"/>
    </contour>
    <contour>
      <point x="0" y="1266" type="line"/>
      <point x="654" y="1266" type="line"/>
      <point x="654" y="1437" type="line"/>
      <point x="0" y="1437" type="line"/>
    </contour>
  </outline>
</glyph>
<glyph name="breve" format="1">
  <advance width="713"/>
  <unicode hex="02D8"/>
  <outline>
    <contour>
      <point x="355" y="1162" type="move" name="_top"/>
    </contour>
    <contour>
      <point x="352" y="1297" type="curve" smooth="yes"/>
      <point x="578" y="1297"/>
      <point x="688" y="1404"/>
      <point x="701" y="1638" type="curve"/>
      <point x="493" y="1638" type="line"/>
      <point x="491" y="1557"/>
      <point x="447" y="1520"/>
      <point x="353" y="1520" type="curve" smooth="yes"/>
      <point x="264" y="1520"/>
      <point x="222" y="1557"/>
      <point x="219" y="1638" type="curve"/>
      <point x="12" y="1638" type="line"/>
      <point x="25" y="1404"/>
      <point x="132" y="1297"/>
    </contour>
  </outline>
</glyph>
<glyph name="dotaccent" format="1">
  <advance width="582"/>
  <unicode hex="02D9"/>
  <outline>
    <contour>
      <point x="285" y="1098" type="move" name="_top"/>
    </contour>
    <contour>
      <point x="287" y="1248" type="curve" smooth="yes"/>
      <point x="406" y="1248"/>
      <point x="505" y="1339"/>
      <point x="505" y="1461" type="curve" smooth="yes"/>
      <point x="505" y="1581"/>
      <point x="404" y="1673"/>
      <point x="287" y="1673" type="curve" smooth="yes"/>
      <point x="167" y="1673"/>
      <point x="75" y="1581"/>
      <point x="75" y="1461" type="curve" smooth="yes"/>
      <point x="75" y="1345"/>
      <point x="163" y="1248"/>
    </contour>
  </outline>
</glyph>
<glyph name="ring" format="1">
  <advance width="1010"/>
  <unicode hex="02DA"/>
  <outline>
    <contour>
      <point x="499" y="1098" type="move" name="_top"/>
    </contour>
    <contour>
      <point x="475" y="1659" type="move" name="top"/>
    </contour>
    <contour>
      <point x="503" y="1374" type="curve" smooth="yes"/>
      <point x="433" y="1374"/>
      <point x="389" y="1418"/>
      <point x="389" y="1489" type="curve" smooth="yes"/>
      <point x="389" y="1559"/>
      <point x="433" y="1604"/>
      <point x="503" y="1604" type="curve" smooth="yes"/>
      <point x="579" y="1604"/>
      <point x="626" y="1559"/>
      <point x="626" y="1489" type="curve" smooth="yes"/>
      <point x="626" y="1418"/>
      <point x="579" y="1374"/>
    </contour>
    <contour>
      <point x="503" y="1239" type="curve" smooth="yes"/>
      <point x="674" y="1239"/>
      <point x="782" y="1335"/>
      <point x="782" y="1489" type="curve" smooth="yes"/>
      <point x="782" y="1642"/>
      <point x="674" y="1739"/>
      <point x="503" y="1739" type="curve" smooth="yes"/>
      <point x="339" y="1739"/>
      <point x="234" y="1642"/>
      <point x="234" y="1489" type="curve" smooth="yes"/>
      <point x="234" y="1335"/>
      <point x="339" y="1239"/>
    </contour>
  </outline>
</glyph>
<glyph name="ogonek" format="1">
  <advance width="582"/>
  <unicode hex="02DB"/>
  <outline>
    <contour>
      <point x="332" y="0" type="move" name="_ogonek"/>
    </contour>
    <contour>
      <point x="354" y="-480" type="curve" smooth="yes"/>
      <point x="389" y="-480"/>
      <point x="425" y="-474"/>
      <point x="468" y="-461" type="curve"/>
      <point x="468" y="-288" type="line"/>
      <point x="449" y="-293"/>
      <point x="431" y="-295"/>
      <point x="415" y="-295" type="curve" smooth="yes"/>
      <point x="343" y="-295"/>
      <point x="301" y="-252"/>
      <point x="301" y="-190" type="curve" smooth="yes"/>
      <point x="301" y="-146"/>
      <point x="321" y="-79"/>
      <point x="404" y="0" type="curve"/>
      <point x="256" y="0" type="line"/>
      <point x="145" y="-76"/>
      <point x="98" y="-168"/>
      <point x="98" y="-251" type="curve" smooth="yes"/>
      <point x="98" y="-376"/>
      <point x="203" y="-480"/>
    </contour>
  </outline>
</glyph>
<glyph name="tilde" format="1">
  <advance width="1319"/>
  <unicode hex="02DC"/>
  <outline>
    <contour>
      <point x="620" y="1162" type="move" name="_top"/>
    </contour>
    <contour>
      <point x="198" y="1337" type="curve"/>
      <point x="290" y="1337" type="line"/>
      <point x="290" y="1608"/>
      <point x="632" y="1324"/>
      <point x="821" y="1324" type="curve" smooth="yes"/>
      <point x="959" y="1324"/>
      <point x="1026" y="1408"/>
      <point x="1026" y="1639" type="curve"/>
      <point x="936" y="1639" type="line"/>
      <point x="936" y="1391"/>
      <point x="586" y="1665"/>
      <point x="416" y="1665" type="curve" smooth="yes"/>
      <point x="273" y="1665"/>
      <point x="198" y="1586"/>
    </contour>
  </outline>
</glyph>
<glyph name="hungarumlaut" format="1">
  <advance width="1195"/>
  <unicode hex="02DD"/>
  <outline>
    <contour>
      <point x="624" y="1162" type="move" name="_top"/>
    </contour>
    <contour>
      <point x="336" y="1229" type="line"/>
      <point x="795" y="1739" type="line"/>
      <point x="549" y="1953" type="line"/>
      <point x="156" y="1374" type="line"/>
    </contour>
    <contour>
      <point x="846" y="1246" type="line"/>
      <point x="1355" y="1705" type="line"/>
      <point x="1134" y="1943" type="line"/>
      <point x="681" y="1409" type="line"/>
    </contour>
  </outline>
</glyph>
<glyph name="uni0307" format="1">
  <advance width="616"/>
  <unicode hex="0307"/>
  <outline>
    <contour>
      <point x="289" y="1162" type="move" name="_top"/>
    </contour>
    <contour>
      <point x="290" y="1276" type="curve" smooth="yes"/>
      <point x="431" y="1276"/>
      <point x="520" y="1363"/>
      <point x="520" y="1501" type="curve" smooth="yes"/>
      <point x="520" y="1639"/>
      <point x="431" y="1725"/>
      <point x="290" y="1725" type="curve" smooth="yes"/>
      <point x="152" y="1725"/>
      <point x="65" y="1639"/>
      <point x="65" y="1501" type="curve" smooth="yes"/>
      <point x="65" y="1363"/>
      <point x="152" y="1276"/>
    </contour>
  </outline>
</glyph>
<glyph name="uni0326" format="1">
  <advance width="799"/>
  <unicode hex="0326"/>
  <outline>
    <contour>
      <point x="430" y="0" type="move" name="_bot"/>
    </contour>
    <contour>
      <point x="245" y="-802" type="line"/>
      <point x="422" y="-749"/>
      <point x="599" y="-691"/>
      <point x="599" y="-417" type="curve" smooth="yes"/>
      <point x="599" y="-112" type="line"/>
      <point x="208" y="-112" type="line"/>
      <point x="208" y="-474" type="line"/>
      <point x="374" y="-474" type="line"/>
      <point x="374" y="-579"/>
      <point x="322" y="-627"/>
      <point x="179" y="-680" type="curve"/>
    </contour>
  </outline>
</glyph>
<glyph name="uni0394" format="1">
  <advance width="1427"/>
  <unicode hex="0394"/>
  <outline>
    <contour>
      <point x="9" y="0" type="line"/>
      <point x="1418" y="0" type="line"/>
      <point x="926" y="1491" type="line"/>
      <point x="503" y="1491" type="line"/>
    </contour>
    <contour>
      <point x="476" y="325" type="line"/>
      <point x="694" y="1110" type="line"/>
      <point x="866" y="325" type="line"/>
    </contour>
  </outline>
</glyph>
<glyph name="uni03A9" format="1">
  <advance width="1845"/>
  <unicode hex="03A9"/>
  <outline>
    <contour>
      <point x="118" y="0" type="line"/>
      <point x="837" y="0" type="line"/>
      <point x="836" y="163" type="line"/>
      <point x="634" y="269"/>
      <point x="459" y="523"/>
      <point x="459" y="831" type="curve" smooth="yes"/>
      <point x="459" y="1122"/>
      <point x="664" y="1227"/>
      <point x="935" y="1227" type="curve" smooth="yes"/>
      <point x="1233" y="1227"/>
      <point x="1398" y="1088"/>
      <point x="1398" y="826" type="curve" smooth="yes"/>
      <point x="1398" y="515"/>
      <point x="1214" y="272"/>
      <point x="1016" y="162" type="curve"/>
      <point x="1017" y="0" type="line"/>
      <point x="1731" y="0" type="line"/>
      <point x="1752" y="200" type="line"/>
      <point x="1416" y="200" type="line"/>
      <point x="1600" y="364"/>
      <point x="1744" y="566"/>
      <point x="1744" y="846" type="curve" smooth="yes"/>
      <point x="1744" y="1204"/>
      <point x="1480" y="1508"/>
      <point x="940" y="1508" type="curve" smooth="yes"/>
      <point x="421" y="1508"/>
      <point x="113" y="1238"/>
      <point x="113" y="850" type="curve" smooth="yes"/>
      <point x="113" y="576"/>
      <point x="232" y="369"/>
      <point x="431" y="200" type="curve"/>
      <point x="93" y="200" type="line"/>
    </contour>
  </outline>
</glyph>
<glyph name="uni03BC" format="1">
  <advance width="1399"/>
  <unicode hex="03BC"/>
  <outline>
    <contour>
      <point x="563" y="-354" type="line"/>
      <point x="563" y="25" type="line"/>
      <point x="590" y="5"/>
      <point x="627" y="-5"/>
      <point x="665" y="-5" type="curve" smooth="yes"/>
      <point x="758" y="-5"/>
      <point x="864" y="53"/>
      <point x="887" y="167" type="curve"/>
      <point x="986" y="0" type="line"/>
      <point x="1273" y="0" type="line"/>
      <point x="1273" y="1162" type="line"/>
      <point x="865" y="1162" type="line"/>
      <point x="865" y="305" type="line"/>
      <point x="838" y="275"/>
      <point x="781" y="255"/>
      <point x="723" y="255" type="curve" smooth="yes"/>
      <point x="643" y="255"/>
      <point x="563" y="293"/>
      <point x="563" y="395" type="curve" smooth="yes"/>
      <point x="563" y="1162" type="line"/>
      <point x="145" y="1162" type="line"/>
      <point x="145" y="-321" type="line"/>
    </contour>
  </outline>
</glyph>
<glyph name="pi" format="1">
  <advance width="1756"/>
  <unicode hex="03C0"/>
  <outline>
    <contour>
      <point x="1276" y="-18" type="curve" smooth="yes"/>
      <point x="1396" y="-18"/>
      <point x="1486" y="13"/>
      <point x="1561" y="84" type="curve"/>
      <point x="1561" y="275" type="line"/>
      <point x="1511" y="255"/>
      <point x="1468" y="245"/>
      <point x="1433" y="245" type="curve" smooth="yes"/>
      <point x="1326" y="245"/>
      <point x="1281" y="334"/>
      <point x="1281" y="509" type="curve" smooth="yes"/>
      <point x="1281" y="635"/>
      <point x="1295" y="721"/>
      <point x="1322" y="920" type="curve"/>
      <point x="1590" y="920" type="line"/>
      <point x="1590" y="1162" type="line"/>
      <point x="566" y="1162" type="line" smooth="yes"/>
      <point x="220" y="1162"/>
      <point x="98" y="990"/>
      <point x="98" y="714" type="curve"/>
      <point x="308" y="714" type="line"/>
      <point x="325" y="880"/>
      <point x="389" y="915"/>
      <point x="492" y="920" type="curve" smooth="yes"/>
      <point x="500" y="920"/>
      <point x="509" y="920"/>
      <point x="517" y="920" type="curve"/>
      <point x="405" y="466" type="line" smooth="yes"/>
      <point x="331" y="166"/>
      <point x="226" y="193"/>
      <point x="100" y="209" type="curve"/>
      <point x="100" y="8" type="line"/>
      <point x="598" y="-84"/>
      <point x="704" y="145"/>
      <point x="742" y="400" type="curve" smooth="yes"/>
      <point x="820" y="920" type="line"/>
      <point x="1010" y="920" type="line"/>
      <point x="972" y="658"/>
      <point x="934" y="513"/>
      <point x="934" y="347" type="curve" smooth="yes"/>
      <point x="934" y="136"/>
      <point x="1003" y="-18"/>
    </contour>
  </outline>
</glyph>
<glyph name="quotedblleft" format="1">
  <advance width="1207"/>
  <unicode hex="201C"/>
  <outline>
    <contour>
      <point x="85" y="733" type="line"/>
      <point x="531" y="733" type="line"/>
      <point x="531" y="1170" type="line"/>
      <point x="345" y="1170" type="line"/>
      <point x="346" y="1267"/>
      <point x="395" y="1314"/>
      <point x="530" y="1365" type="curve"/>
      <point x="467" y="1480" type="line"/>
      <point x="301" y="1430"/>
      <point x="85" y="1374"/>
      <point x="85" y="1117" type="curve" smooth="yes"/>
    </contour>
    <contour>
      <point x="638" y="733" type="line"/>
      <point x="1083" y="733" type="line"/>
      <point x="1083" y="1170" type="line"/>
      <point x="897" y="1170" type="line"/>
      <point x="898" y="1267"/>
      <point x="947" y="1314"/>
      <point x="1082" y="1365" type="curve"/>
      <point x="1019" y="1480" type="line"/>
      <point x="853" y="1430"/>
      <point x="638" y="1374"/>
      <point x="638" y="1117" type="curve" smooth="yes"/>
    </contour>
  </outline>
</glyph>
<glyph name="quotedblright" format="1">
  <advance width="1135"/>
  <unicode hex="201D"/>
  <outline>
    <contour>
      <point x="117" y="787" type="line"/>
      <point x="302" y="842"/>
      <point x="521" y="904"/>
      <point x="521" y="1172" type="curve" smooth="yes"/>
      <point x="521" y="1578" type="line"/>
      <point x="50" y="1578" type="line"/>
      <point x="50" y="1115" type="line"/>
      <point x="246" y="1115" type="line"/>
      <point x="246" y="1011"/>
      <point x="194" y="962"/>
      <point x="51" y="909" type="curve"/>
    </contour>
    <contour>
      <point x="701" y="787" type="line"/>
      <point x="886" y="842"/>
      <point x="1105" y="904"/>
      <point x="1105" y="1172" type="curve" smooth="yes"/>
      <point x="1105" y="1578" type="line"/>
      <point x="634" y="1578" type="line"/>
      <point x="634" y="1115" type="line"/>
      <point x="830" y="1115" type="line"/>
      <point x="830" y="1011"/>
      <point x="778" y="962"/>
      <point x="635" y="909" type="curve"/>
    </contour>
  </outline>
</glyph>
<glyph name="quotedblbase" format="1">
  <advance width="1164"/>
  <unicode hex="201E"/>
  <outline>
    <contour>
      <point x="186" y="-303" type="line"/>
      <point x="352" y="-252"/>
      <point x="567" y="-198"/>
      <point x="567" y="60" type="curve" smooth="yes"/>
      <point x="567" y="444" type="line"/>
      <point x="122" y="444" type="line"/>
      <point x="122" y="7" type="line"/>
      <point x="308" y="7" type="line"/>
      <point x="307" y="-91"/>
      <point x="259" y="-138"/>
      <point x="123" y="-188" type="curve"/>
    </contour>
    <contour>
      <point x="738" y="-303" type="line"/>
      <point x="904" y="-252"/>
      <point x="1119" y="-198"/>
      <point x="1119" y="60" type="curve" smooth="yes"/>
      <point x="1119" y="444" type="line"/>
      <point x="674" y="444" type="line"/>
      <point x="674" y="7" type="line"/>
      <point x="860" y="7" type="line"/>
      <point x="859" y="-91"/>
      <point x="811" y="-138"/>
      <point x="675" y="-188" type="curve"/>
    </contour>
  </outline>
</glyph>
<glyph name="dagger" format="1">
  <advance width="1279"/>
  <unicode hex="2020"/>
  <outline>
    <contour>
      <point x="423" y="-187" type="line"/>
      <point x="861" y="-187" type="line"/>
      <point x="861" y="869" type="line"/>
      <point x="1192" y="869" type="line"/>
      <point x="1192" y="1145" type="line"/>
      <point x="860" y="1145" type="line"/>
      <point x="860" y="1578" type="line"/>
      <point x="423" y="1578" type="line"/>
      <point x="423" y="1145" type="line"/>
      <point x="86" y="1145" type="line"/>
      <point x="86" y="869" type="line"/>
      <point x="423" y="869" type="line"/>
    </contour>
  </outline>
</glyph>
<glyph name="daggerdbl" format="1">
  <advance width="1279"/>
  <unicode hex="2021"/>
  <outline>
    <contour>
      <point x="423" y="-187" type="line"/>
      <point x="861" y="-187" type="line"/>
      <point x="861" y="211" type="line"/>
      <point x="1193" y="211" type="line"/>
      <point x="1193" y="487" type="line"/>
      <point x="861" y="487" type="line"/>
      <point x="861" y="869" type="line"/>
      <point x="1192" y="869" type="line"/>
      <point x="1192" y="1145" type="line"/>
      <point x="860" y="1145" type="line"/>
      <point x="860" y="1578" type="line"/>
      <point x="423" y="1578" type="line"/>
      <point x="423" y="1145" type="line"/>
      <point x="86" y="1145" type="line"/>
      <point x="86" y="869" type="line"/>
      <point x="423" y="869" type="line"/>
      <point x="423" y="487" type="line"/>
      <point x="86" y="487" type="line"/>
      <point x="86" y="211" type="line"/>
      <point x="423" y="211" type="line"/>
    </contour>
  </outline>
</glyph>
<glyph name="bullet" format="1">
  <advance width="1255"/>
  <unicode hex="2022"/>
  <outline>
    <contour>
      <point x="632" y="284" type="curve" smooth="yes"/>
      <point x="847" y="284"/>
      <point x="1014" y="465"/>
      <point x="1014" y="638" type="curve" smooth="yes"/>
      <point x="1014" y="849"/>
      <point x="815" y="992"/>
      <point x="622" y="992" type="curve" smooth="yes"/>
      <point x="421" y="992"/>
      <point x="242" y="826"/>
      <point x="242" y="638" type="curve" smooth="yes"/>
      <point x="242" y="425"/>
      <point x="441" y="284"/>
    </contour>
  </outline>
</glyph>
<glyph name="perthousand" format="1">
  <advance width="3158"/>
  <unicode hex="2030"/>
  <outline>
    <contour>
      <point x="2685" y="213" type="curve" smooth="yes"/>
      <point x="2600" y="213"/>
      <point x="2546" y="287"/>
      <point x="2546" y="403" type="curve" smooth="yes"/>
      <point x="2546" y="523"/>
      <point x="2600" y="597"/>
      <point x="2685" y="597" type="curve" smooth="yes"/>
      <point x="2770" y="597"/>
      <point x="2823" y="523"/>
      <point x="2823" y="403" type="curve" smooth="yes"/>
      <point x="2823" y="287"/>
      <point x="2770" y="213"/>
    </contour>
    <contour>
      <point x="2685" y="-17" type="curve" smooth="yes"/>
      <point x="2925" y="-17"/>
      <point x="3076" y="145"/>
      <point x="3076" y="403" type="curve" smooth="yes"/>
      <point x="3076" y="661"/>
      <point x="2925" y="822"/>
      <point x="2685" y="822" type="curve" smooth="yes"/>
      <point x="2444" y="822"/>
      <point x="2293" y="661"/>
      <point x="2293" y="403" type="curve" smooth="yes"/>
      <point x="2293" y="145"/>
      <point x="2444" y="-17"/>
    </contour>
    <component base="percent"/>
  </outline>
</glyph>
<glyph name="guilsinglleft" format="1">
  <advance width="1137"/>
  <unicode hex="2039"/>
  <outline>
    <contour>
      <point x="979" y="10" type="line"/>
      <point x="979" y="348" type="line"/>
      <point x="567" y="601" type="line"/>
      <point x="980" y="856" type="line"/>
      <point x="980" y="1193" type="line"/>
      <point x="209" y="730" type="line"/>
      <point x="209" y="474" type="line"/>
    </contour>
  </outline>
</glyph>
<glyph name="guilsinglright" format="1">
  <advance width="1137"/>
  <unicode hex="203A"/>
  <outline>
    <contour>
      <point x="241" y="10" type="line"/>
      <point x="1011" y="474" type="line"/>
      <point x="1011" y="730" type="line"/>
      <point x="240" y="1193" type="line"/>
      <point x="240" y="856" type="line"/>
      <point x="653" y="601" type="line"/>
      <point x="241" y="348" type="line"/>
    </contour>
  </outline>
</glyph>
<glyph name="fraction" format="1">
  <advance width="1181"/>
  <unicode hex="2044"/>
  <outline>
    <contour>
      <point x="318" y="-17" type="line"/>
      <point x="1181" y="1508" type="line"/>
      <point x="858" y="1508" type="line"/>
      <point x="0" y="-17" type="line"/>
    </contour>
  </outline>
</glyph>
<glyph name="uni2074" format="1">
  <advance width="1094"/>
  <unicode hex="2074"/>
  <outline>
    <contour>
      <point x="589" y="565" type="line"/>
      <point x="835" y="558" type="line"/>
      <point x="835" y="762" type="line"/>
      <point x="962" y="762" type="line"/>
      <point x="962" y="971" type="line"/>
      <point x="835" y="971" type="line"/>
      <point x="835" y="1575" type="line"/>
      <point x="593" y="1634" type="line"/>
      <point x="109" y="933" type="line"/>
      <point x="144" y="762" type="line"/>
      <point x="589" y="762" type="line"/>
    </contour>
    <contour>
      <point x="386" y="970" type="line"/>
      <point x="589" y="1287" type="line"/>
      <point x="589" y="970" type="line"/>
    </contour>
  </outline>
</glyph>
<glyph name="Euro" format="1">
  <advance width="1341"/>
  <unicode hex="20AC"/>
  <outline>
    <contour>
      <point x="-33" y="557" type="line"/>
      <point x="859" y="557" type="line"/>
      <point x="859" y="733" type="line"/>
      <point x="363" y="733" type="line"/>
      <point x="363" y="901" type="line"/>
      <point x="859" y="901" type="line"/>
      <point x="859" y="1077" type="line"/>
      <point x="-33" y="1077" type="line"/>
      <point x="-33" y="901" type="line"/>
      <point x="256" y="901" type="line"/>
      <point x="256" y="733" type="line"/>
      <point x="-33" y="733" type="line"/>
    </contour>
    <component base="C"/>
  </outline>
</glyph>
<glyph name="afii61289" format="1">
  <advance width="1114"/>
  <unicode hex="2113"/>
  <outline>
    <contour>
      <point x="705" y="-15" type="curve"/>
      <point x="851" y="-15"/>
      <point x="975" y="19"/>
      <point x="1048" y="66" type="curve"/>
      <point x="985" y="323" type="line"/>
      <point x="929" y="302"/>
      <point x="873" y="286"/>
      <point x="818" y="286" type="curve"/>
      <point x="763" y="286"/>
      <point x="685" y="302"/>
      <point x="685" y="426" type="curve"/>
      <point x="685" y="925" type="line"/>
      <point x="900" y="1122" type="line"/>
      <point x="1019" y="1231"/>
      <point x="1069" y="1346"/>
      <point x="1069" y="1449" type="curve"/>
      <point x="1069" y="1635"/>
      <point x="906" y="1781"/>
      <point x="680" y="1781" type="curve"/>
      <point x="412" y="1781"/>
      <point x="281" y="1605"/>
      <point x="281" y="1366" type="curve"/>
      <point x="281" y="859" type="line"/>
      <point x="122" y="719" type="line"/>
      <point x="122" y="512" type="line"/>
      <point x="281" y="654" type="line"/>
      <point x="281" y="460" type="line"/>
      <point x="281" y="54"/>
      <point x="514" y="-15"/>
    </contour>
    <contour>
      <point x="685" y="1152" type="line"/>
      <point x="685" y="1357" type="line"/>
      <point x="685" y="1450"/>
      <point x="733" y="1486"/>
      <point x="781" y="1486" type="curve"/>
      <point x="838" y="1486"/>
      <point x="864" y="1447"/>
      <point x="864" y="1399" type="curve"/>
      <point x="864" y="1357"/>
      <point x="844" y="1307"/>
      <point x="807" y="1271" type="curve"/>
    </contour>
  </outline>
</glyph>
<glyph name="trademark" format="1">
  <advance width="2267"/>
  <unicode hex="2122"/>
  <outline>
    <contour>
      <point x="1019" y="498" type="line"/>
      <point x="1247" y="498" type="line"/>
      <point x="1247" y="1156" type="line"/>
      <point x="1473" y="673" type="line"/>
      <point x="1648" y="673" type="line"/>
      <point x="1882" y="1156" type="line"/>
      <point x="1882" y="498" type="line"/>
      <point x="2111" y="498" type="line"/>
      <point x="2111" y="1485" type="line"/>
      <point x="1859" y="1485" type="line"/>
      <point x="1560" y="935" type="line"/>
      <point x="1279" y="1485" type="line"/>
      <point x="1019" y="1485" type="line"/>
    </contour>
    <contour>
      <point x="358" y="498" type="line"/>
      <point x="617" y="498" type="line"/>
      <point x="617" y="1310" type="line"/>
      <point x="876" y="1310" type="line"/>
      <point x="876" y="1485" type="line"/>
      <point x="94" y="1485" type="line"/>
      <point x="94" y="1310" type="line"/>
      <point x="358" y="1310" type="line"/>
    </contour>
  </outline>
</glyph>
<glyph name="Omega" format="1">
  <advance width="1953"/>
  <unicode hex="2126"/>
  <outline>
    <contour>
      <point x="125" y="0" type="line"/>
      <point x="886" y="0" type="line"/>
      <point x="885" y="172" type="line"/>
      <point x="671" y="284"/>
      <point x="486" y="553"/>
      <point x="486" y="879" type="curve" smooth="yes"/>
      <point x="486" y="1187"/>
      <point x="702" y="1298"/>
      <point x="989" y="1298" type="curve" smooth="yes"/>
      <point x="1304" y="1298"/>
      <point x="1479" y="1151"/>
      <point x="1479" y="874" type="curve" smooth="yes"/>
      <point x="1479" y="545"/>
      <point x="1284" y="287"/>
      <point x="1075" y="171" type="curve"/>
      <point x="1076" y="0" type="line"/>
      <point x="1832" y="0" type="line"/>
      <point x="1854" y="212" type="line"/>
      <point x="1498" y="212" type="line"/>
      <point x="1693" y="386"/>
      <point x="1845" y="599"/>
      <point x="1845" y="895" type="curve" smooth="yes"/>
      <point x="1845" y="1274"/>
      <point x="1566" y="1596"/>
      <point x="995" y="1596" type="curve" smooth="yes"/>
      <point x="446" y="1596"/>
      <point x="120" y="1310"/>
      <point x="120" y="899" type="curve" smooth="yes"/>
      <point x="120" y="609"/>
      <point x="245" y="391"/>
      <point x="456" y="212" type="curve"/>
      <point x="98" y="212" type="line"/>
    </contour>
  </outline>
</glyph>
<glyph name="estimated" format="1">
  <advance width="1186"/>
  <unicode hex="212E"/>
  <outline>
    <contour>
      <point x="642" y="138" type="curve" smooth="yes"/>
      <point x="772" y="138"/>
      <point x="937" y="180"/>
      <point x="1026" y="257" type="curve"/>
      <point x="973" y="374" type="line"/>
      <point x="934" y="342"/>
      <point x="819" y="267"/>
      <point x="673" y="267" type="curve" smooth="yes"/>
      <point x="573" y="267"/>
      <point x="470" y="296"/>
      <point x="406" y="366" type="curve"/>
      <point x="406" y="687" type="line"/>
      <point x="1052" y="687" type="line"/>
      <point x="1058" y="722"/>
      <point x="1062" y="758"/>
      <point x="1062" y="794" type="curve" smooth="yes"/>
      <point x="1062" y="1067"/>
      <point x="924" y="1276"/>
      <point x="633" y="1276" type="curve" smooth="yes"/>
      <point x="289" y="1276"/>
      <point x="129" y="1002"/>
      <point x="129" y="701" type="curve" smooth="yes"/>
      <point x="129" y="387"/>
      <point x="297" y="138"/>
    </contour>
    <contour>
      <point x="406" y="804" type="line"/>
      <point x="406" y="1061" type="line"/>
      <point x="455" y="1112"/>
      <point x="537" y="1143"/>
      <point x="634" y="1143" type="curve" smooth="yes"/>
      <point x="717" y="1143"/>
      <point x="778" y="1117"/>
      <point x="821" y="1074" type="curve"/>
      <point x="821" y="804" type="line"/>
    </contour>
  </outline>
</glyph>
<glyph name="emptyset" format="1">
  <advance width="1756"/>
  <unicode hex="2205"/>
  <outline>
    <contour>
      <point x="375" y="-91" type="line"/>
      <point x="538" y="91" type="line"/>
      <point x="637" y="22"/>
      <point x="757" y="-18"/>
      <point x="887" y="-18" type="curve" smooth="yes"/>
      <point x="1224" y="-18"/>
      <point x="1497" y="255"/>
      <point x="1497" y="592" type="curve" smooth="yes"/>
      <point x="1497" y="746"/>
      <point x="1440" y="887"/>
      <point x="1346" y="994" type="curve"/>
      <point x="1509" y="1176" type="line"/>
      <point x="1415" y="1259" type="line"/>
      <point x="1254" y="1079" type="line"/>
      <point x="1152" y="1156"/>
      <point x="1025" y="1202"/>
      <point x="887" y="1202" type="curve" smooth="yes"/>
      <point x="550" y="1202"/>
      <point x="277" y="929"/>
      <point x="277" y="592" type="curve" smooth="yes"/>
      <point x="277" y="430"/>
      <point x="340" y="283"/>
      <point x="443" y="174" type="curve"/>
      <point x="280" y="-8" type="line"/>
    </contour>
    <contour>
      <point x="582" y="330" type="line"/>
      <point x="524" y="401"/>
      <point x="491" y="493"/>
      <point x="491" y="592" type="curve" smooth="yes"/>
      <point x="491" y="810"/>
      <point x="653" y="996"/>
      <point x="887" y="996" type="curve" smooth="yes"/>
      <point x="975" y="996"/>
      <point x="1053" y="970"/>
      <point x="1116" y="925" type="curve"/>
    </contour>
    <contour>
      <point x="887" y="188" type="curve" smooth="yes"/>
      <point x="807" y="188"/>
      <point x="736" y="209"/>
      <point x="677" y="246" type="curve"/>
      <point x="1205" y="837" type="line"/>
      <point x="1255" y="768"/>
      <point x="1283" y="683"/>
      <point x="1283" y="592" type="curve" smooth="yes"/>
      <point x="1283" y="374"/>
      <point x="1121" y="188"/>
    </contour>
  </outline>
</glyph>
<glyph name="Delta" format="1">
  <advance width="1427"/>
  <unicode hex="2206"/>
  <outline>
    <contour>
      <point x="9" y="0" type="line"/>
      <point x="1418" y="0" type="line"/>
      <point x="926" y="1485" type="line"/>
      <point x="503" y="1485" type="line"/>
    </contour>
    <contour>
      <point x="476" y="325" type="line"/>
      <point x="694" y="1104" type="line"/>
      <point x="866" y="325" type="line"/>
    </contour>
  </outline>
</glyph>
<glyph name="product" format="1">
  <advance width="1820"/>
  <unicode hex="220F"/>
  <outline>
    <contour>
      <point x="278" y="-107" type="line"/>
      <point x="717" y="-107" type="line"/>
      <point x="717" y="1261" type="line"/>
      <point x="1103" y="1261" type="line"/>
      <point x="1103" y="-107" type="line"/>
      <point x="1542" y="-107" type="line"/>
      <point x="1542" y="1261" type="line"/>
      <point x="1774" y="1261" type="line"/>
      <point x="1774" y="1578" type="line"/>
      <point x="46" y="1578" type="line"/>
      <point x="46" y="1261" type="line"/>
      <point x="278" y="1261" type="line"/>
    </contour>
  </outline>
</glyph>
<glyph name="infinity" format="1">
  <advance width="1784"/>
  <unicode hex="221E"/>
  <outline>
    <contour>
      <point x="497" y="194" type="curve" smooth="yes"/>
      <point x="663" y="194"/>
      <point x="790" y="292"/>
      <point x="895" y="408" type="curve"/>
      <point x="998" y="292"/>
      <point x="1121" y="194"/>
      <point x="1287" y="194" type="curve" smooth="yes"/>
      <point x="1501" y="194"/>
      <point x="1663" y="279"/>
      <point x="1664" y="630" type="curve"/>
      <point x="1663" y="979"/>
      <point x="1501" y="1064"/>
      <point x="1287" y="1064" type="curve" smooth="yes"/>
      <point x="1121" y="1064"/>
      <point x="998" y="966"/>
      <point x="895" y="850" type="curve"/>
      <point x="790" y="966"/>
      <point x="663" y="1064"/>
      <point x="497" y="1064" type="curve" smooth="yes"/>
      <point x="283" y="1064"/>
      <point x="121" y="965"/>
      <point x="120" y="630" type="curve"/>
      <point x="121" y="293"/>
      <point x="283" y="194"/>
    </contour>
    <contour>
      <point x="488" y="479" type="curve" smooth="yes"/>
      <point x="395" y="479"/>
      <point x="361" y="548"/>
      <point x="364" y="628" type="curve"/>
      <point x="361" y="710"/>
      <point x="395" y="779"/>
      <point x="488" y="779" type="curve" smooth="yes"/>
      <point x="563" y="779"/>
      <point x="649" y="715"/>
      <point x="718" y="629" type="curve"/>
      <point x="649" y="543"/>
      <point x="563" y="479"/>
    </contour>
    <contour>
      <point x="1296" y="479" type="curve" smooth="yes"/>
      <point x="1228" y="479"/>
      <point x="1144" y="543"/>
      <point x="1075" y="629" type="curve"/>
      <point x="1144" y="715"/>
      <point x="1228" y="779"/>
      <point x="1296" y="779" type="curve" smooth="yes"/>
      <point x="1384" y="779"/>
      <point x="1418" y="719"/>
      <point x="1420" y="629" type="curve"/>
      <point x="1418" y="539"/>
      <point x="1384" y="479"/>
    </contour>
  </outline>
</glyph>
<glyph name="integral" format="1">
  <advance width="1203"/>
  <unicode hex="222B"/>
  <outline>
    <contour>
      <point x="278" y="-461" type="curve" smooth="yes"/>
      <point x="529" y="-461"/>
      <point x="706" y="-322"/>
      <point x="741" y="12" type="curve" smooth="yes"/>
      <point x="856" y="1098" type="line" smooth="yes"/>
      <point x="875" y="1277"/>
      <point x="954" y="1284"/>
      <point x="995" y="1284" type="curve" smooth="yes"/>
      <point x="1045" y="1284"/>
      <point x="1090" y="1288"/>
      <point x="1133" y="1279" type="curve"/>
      <point x="1141" y="1568" type="line"/>
      <point x="1064" y="1574"/>
      <point x="999" y="1572"/>
      <point x="929" y="1572" type="curve" smooth="yes"/>
      <point x="678" y="1572"/>
      <point x="501" y="1432"/>
      <point x="466" y="1098" type="curve" smooth="yes"/>
      <point x="350" y="12" type="line"/>
      <point x="332" y="-167"/>
      <point x="253" y="-174"/>
      <point x="212" y="-174" type="curve" smooth="yes"/>
      <point x="161" y="-174"/>
      <point x="117" y="-177"/>
      <point x="74" y="-168" type="curve"/>
      <point x="66" y="-456" type="line"/>
      <point x="143" y="-463"/>
      <point x="207" y="-461"/>
    </contour>
  </outline>
</glyph>
<glyph name="greaterequal" format="1">
  <advance width="1541"/>
  <unicode hex="2265"/>
  <outline>
    <contour>
      <point x="288" y="373" type="line"/>
      <point x="1400" y="953" type="line"/>
      <point x="288" y="1533" type="line"/>
      <point x="153" y="1266" type="line"/>
      <point x="786" y="953" type="line"/>
      <point x="153" y="640" type="line"/>
    </contour>
    <contour>
      <point x="204" y="0" type="line"/>
      <point x="1346" y="0" type="line"/>
      <point x="1346" y="231" type="line"/>
      <point x="204" y="231" type="line"/>
    </contour>
  </outline>
</glyph>
<glyph name="uniFB00" format="1">
  <advance width="1689"/>
  <unicode hex="FB00"/>
  <outline>
    <contour>
      <point x="194" y="0" type="line"/>
      <point x="583" y="0" type="line"/>
      <point x="583" y="891" type="line"/>
      <point x="1001" y="891" type="line"/>
      <point x="1001" y="0" type="line"/>
      <point x="1390" y="0" type="line"/>
      <point x="1390" y="891" type="line"/>
      <point x="1687" y="891" type="line"/>
      <point x="1687" y="1096" type="line"/>
      <point x="1390" y="1096" type="line"/>
      <point x="1390" y="1159" type="line" smooth="yes"/>
      <point x="1390" y="1265"/>
      <point x="1456" y="1296"/>
      <point x="1534" y="1296" type="curve" smooth="yes"/>
      <point x="1581" y="1296"/>
      <point x="1633" y="1285"/>
      <point x="1679" y="1271" type="curve"/>
      <point x="1733" y="1503" type="line"/>
      <point x="1664" y="1547"/>
      <point x="1547" y="1580"/>
      <point x="1409" y="1580" type="curve" smooth="yes"/>
      <point x="1229" y="1580"/>
      <point x="1001" y="1500"/>
      <point x="1001" y="1116" type="curve" smooth="yes"/>
      <point x="1001" y="1096" type="line"/>
      <point x="583" y="1096" type="line"/>
      <point x="583" y="1159" type="line" smooth="yes"/>
      <point x="583" y="1265"/>
      <point x="649" y="1296"/>
      <point x="727" y="1296" type="curve" smooth="yes"/>
      <point x="774" y="1296"/>
      <point x="826" y="1285"/>
      <point x="872" y="1271" type="curve"/>
      <point x="926" y="1503" type="line"/>
      <point x="857" y="1547"/>
      <point x="740" y="1580"/>
      <point x="602" y="1580" type="curve" smooth="yes"/>
      <point x="422" y="1580"/>
      <point x="194" y="1500"/>
      <point x="194" y="1116" type="curve" smooth="yes"/>
      <point x="194" y="1096" type="line"/>
      <point x="13" y="1096" type="line"/>
      <point x="13" y="891" type="line"/>
      <point x="194" y="891" type="line"/>
    </contour>
  </outline>
</glyph>
<glyph name="uniFB02" format="1">
  <advance width="1608"/>
  <unicode hex="FB02"/>
  <outline>
    <contour>
      <point x="207" y="0" type="line"/>
      <point x="619" y="0" type="line"/>
      <point x="619" y="981" type="line"/>
      <point x="874" y="981" type="line"/>
      <point x="874" y="1162" type="line"/>
      <point x="621" y="1162" type="line"/>
      <point x="621" y="1171"/>
      <point x="621" y="1179"/>
      <point x="621" y="1187" type="curve" smooth="yes"/>
      <point x="627" y="1356"/>
      <point x="696" y="1400"/>
      <point x="825" y="1400" type="curve" smooth="yes"/>
      <point x="886" y="1400"/>
      <point x="960" y="1390"/>
      <point x="1047" y="1379" type="curve"/>
      <point x="1047" y="0" type="line"/>
      <point x="1460" y="0" type="line"/>
      <point x="1460" y="1618" type="line"/>
      <point x="1194" y="1644"/>
      <point x="954" y="1678"/>
      <point x="757" y="1678" type="curve" smooth="yes"/>
      <point x="426" y="1678"/>
      <point x="217" y="1582"/>
      <point x="207" y="1191" type="curve" smooth="yes"/>
      <point x="207" y="1181"/>
      <point x="207" y="1172"/>
      <point x="207" y="1162" type="curve"/>
      <point x="19" y="1162" type="line"/>
      <point x="19" y="981" type="line"/>
      <point x="207" y="981" type="line"/>
    </contour>
  </outline>
</glyph>
<glyph name="caron.alt" format="1">
  <advance width="600"/>
  <outline>
    <contour>
      <point x="30" y="1162" type="move" name="_caron.alt"/>
    </contour>
    <component base="comma" yOffset="1576"/>
  </outline>
</glyph>
<glyph name="fj" format="1">
  <advance width="1502"/>
  <outline>
    <contour>
      <point x="587" y="1098" type="line"/>
      <point x="587" y="1251"/>
      <point x="643" y="1280"/>
      <point x="706" y="1280" type="curve" smooth="yes"/>
      <point x="763" y="1280"/>
      <point x="806" y="1277"/>
      <point x="838" y="1273" type="curve"/>
      <point x="818" y="1563" type="line"/>
      <point x="756" y="1565"/>
      <point x="688" y="1570"/>
      <point x="613" y="1570" type="curve" smooth="yes"/>
      <point x="336" y="1570"/>
      <point x="196" y="1406"/>
      <point x="196" y="1098" type="curve"/>
      <point x="18" y="1098" type="line"/>
      <point x="18" y="927" type="line"/>
      <point x="196" y="927" type="line"/>
      <point x="196" y="0" type="line"/>
      <point x="585" y="0" type="line"/>
      <point x="585" y="927" type="line"/>
      <point x="1000" y="927" type="line"/>
      <point x="1000" y="228" type="line" smooth="yes"/>
      <point x="1000" y="57"/>
      <point x="905" y="4"/>
      <point x="795" y="-54" type="curve"/>
      <point x="923" y="-319" type="line"/>
      <point x="1155" y="-267"/>
      <point x="1390" y="-88"/>
      <point x="1390" y="210" type="curve" smooth="yes"/>
      <point x="1390" y="1098" type="line"/>
    </contour>
    <contour>
      <point x="1194" y="1262" type="curve" smooth="yes"/>
      <point x="1316" y="1262"/>
      <point x="1401" y="1353"/>
      <point x="1401" y="1473" type="curve" smooth="yes"/>
      <point x="1401" y="1593"/>
      <point x="1314" y="1686"/>
      <point x="1194" y="1686" type="curve" smooth="yes"/>
      <point x="1074" y="1686"/>
      <point x="987" y="1597"/>
      <point x="987" y="1473" type="curve" smooth="yes"/>
      <point x="987" y="1359"/>
      <point x="1070" y="1262"/>
    </contour>
  </outline>
</glyph>
